NotoSansWancho-Regular.ufo
<glyph name="parenleft" format="2">
  <advance width="300"/>
  <unicode hex="0028"/>
  <outline>
    <contour>
      <point x="40" y="274" type="curve" smooth="yes"/>
      <point x="40" y="113"/>
      <point x="86" y="-41"/>
      <point x="187" y="-158" type="curve"/>
      <point x="269" y="-158" type="line"/>
      <point x="177" y="-33"/>
      <point x="129" y="120"/>
      <point x="129" y="275" type="curve" smooth="yes"/>
      <point x="129" y="433"/>
      <point x="177" y="589"/>
      <point x="270" y="714" type="curve"/>
      <point x="187" y="714" type="line"/>
      <point x="86" y="593"/>
      <point x="40" y="437"/>
    </contour>
  </outline>
</glyph>
<glyph name="parenright" format="2">
  <advance width="300"/>
  <unicode hex="0029"/>
  <outline>
    <contour>
      <point x="260" y="274" type="curve" smooth="yes"/>
      <point x="260" y="437"/>
      <point x="214" y="593"/>
      <point x="113" y="714" type="curve"/>
      <point x="30" y="714" type="line"/>
      <point x="123" y="589"/>
      <point x="171" y="433"/>
      <point x="171" y="275" type="curve" smooth="yes"/>
      <point x="171" y="120"/>
      <point x="123" y="-33"/>
      <point x="31" y="-158" type="curve"/>
      <point x="113" y="-158" type="line"/>
      <point x="214" y="-41"/>
      <point x="260" y="113"/>
    </contour>
  </outline>
</glyph>
<glyph name="period" format="2">
  <advance width="291"/>
  <unicode hex="002E"/>
  <outline>
    <contour>
      <point x="100" y="54" type="curve" smooth="yes"/>
      <point x="100" y="6"/>
      <point x="127" y="-14"/>
      <point x="161" y="-14" type="curve" smooth="yes"/>
      <point x="195" y="-14"/>
      <point x="224" y="6"/>
      <point x="224" y="54" type="curve" smooth="yes"/>
      <point x="224" y="103"/>
      <point x="195" y="121"/>
      <point x="161" y="121" type="curve" smooth="yes"/>
      <point x="127" y="121"/>
      <point x="100" y="103"/>
    </contour>
  </outline>
</glyph>
<glyph name="slash" format="2">
  <advance width="372"/>
  <unicode hex="002F"/>
  <outline>
    <contour>
      <point x="362" y="714" type="line"/>
      <point x="276" y="714" type="line"/>
      <point x="10" y="0" type="line"/>
      <point x="96" y="0" type="line"/>
    </contour>
  </outline>
</glyph>
<glyph name="backslash" format="2">
  <advance width="372"/>
  <unicode hex="005C"/>
  <outline>
    <contour>
      <point x="96" y="714" type="line"/>
      <point x="10" y="714" type="line"/>
      <point x="276" y="0" type="line"/>
      <point x="363" y="0" type="line"/>
    </contour>
  </outline>
</glyph>
<glyph name="bracketright" format="2">
  <advance width="329"/>
  <unicode hex="005D"/>
  <outline>
    <contour>
      <point x="25" y="-86" type="line"/>
      <point x="25" y="-158" type="line"/>
      <point x="249" y="-158" type="line"/>
      <point x="249" y="714" type="line"/>
      <point x="25" y="714" type="line"/>
      <point x="25" y="642" type="line"/>
      <point x="163" y="642" type="line"/>
      <point x="163" y="-86" type="line"/>
    </contour>
  </outline>
</glyph>
<glyph name="quotedblleft" format="2">
  <advance width="359"/>
  <unicode hex="201C"/>
  <outline>
    <contour>
      <point x="347" y="714" type="curve"/>
      <point x="282" y="714" type="line"/>
      <point x="249" y="642"/>
      <point x="213" y="550"/>
      <point x="195" y="480" type="curve"/>
      <point x="202" y="469" type="line"/>
      <point x="297" y="469" type="line"/>
      <point x="307" y="538"/>
      <point x="328" y="637"/>
    </contour>
    <contour>
      <point x="162" y="714" type="curve"/>
      <point x="98" y="714" type="line"/>
      <point x="65" y="642"/>
      <point x="30" y="550"/>
      <point x="12" y="480" type="curve"/>
      <point x="18" y="469" type="line"/>
      <point x="112" y="469" type="line"/>
      <point x="122" y="538"/>
      <point x="143" y="637"/>
    </contour>
  </outline>
</glyph>
<glyph name="aa-wcho" format="2">
  <advance width="649"/>
  <unicode hex="1E2C0"/>
  <anchor x="257" y="660" name="top"/>
  <outline>
    <contour>
      <point x="20" y="0" type="line"/>
      <point x="92" y="0" type="line"/>
      <point x="314" y="553" type="line" smooth="yes"/>
      <point x="357" y="660"/>
      <point x="300" y="720"/>
      <point x="225" y="720" type="curve" smooth="yes"/>
      <point x="146" y="720"/>
      <point x="82" y="656"/>
      <point x="82" y="575" type="curve" smooth="yes"/>
      <point x="82" y="456"/>
      <point x="182" y="396"/>
      <point x="301" y="396" type="curve" smooth="yes"/>
      <point x="402" y="396"/>
      <point x="513" y="437"/>
      <point x="579" y="494" type="curve"/>
      <point x="550" y="502" type="line"/>
      <point x="351" y="0" type="line"/>
      <point x="423" y="0" type="line"/>
      <point x="649" y="566" type="line"/>
      <point x="577" y="566" type="line"/>
      <point x="535" y="527"/>
      <point x="431" y="461"/>
      <point x="296" y="461" type="curve" smooth="yes"/>
      <point x="196" y="461"/>
      <point x="154" y="512"/>
      <point x="154" y="574" type="curve" smooth="yes"/>
      <point x="154" y="629"/>
      <point x="187" y="655"/>
      <point x="217" y="655" type="curve" smooth="yes"/>
      <point x="248" y="655"/>
      <point x="270" y="627"/>
      <point x="246" y="566" type="curve" smooth="yes"/>
    </contour>
  </outline>
</glyph>
<glyph name="a-wcho" format="2">
  <advance width="649"/>
  <unicode hex="1E2C1"/>
  <anchor x="257" y="660" name="top"/>
  <outline>
    <contour>
      <point x="20" y="0" type="line"/>
      <point x="92" y="0" type="line"/>
      <point x="314" y="553" type="line" smooth="yes"/>
      <point x="357" y="660"/>
      <point x="300" y="720"/>
      <point x="225" y="720" type="curve" smooth="yes"/>
      <point x="146" y="720"/>
      <point x="82" y="656"/>
      <point x="82" y="575" type="curve" smooth="yes"/>
      <point x="82" y="456"/>
      <point x="182" y="396"/>
      <point x="301" y="396" type="curve" smooth="yes"/>
      <point x="402" y="396"/>
      <point x="513" y="437"/>
      <point x="579" y="494" type="curve"/>
      <point x="550" y="502" type="line"/>
      <point x="351" y="0" type="line"/>
      <point x="423" y="0" type="line"/>
      <point x="649" y="566" type="line"/>
      <point x="577" y="566" type="line"/>
      <point x="535" y="527"/>
      <point x="431" y="461"/>
      <point x="296" y="461" type="curve" smooth="yes"/>
      <point x="196" y="461"/>
      <point x="154" y="512"/>
      <point x="154" y="574" type="curve" smooth="yes"/>
      <point x="154" y="629"/>
      <point x="187" y="655"/>
      <point x="217" y="655" type="curve" smooth="yes"/>
      <point x="248" y="655"/>
      <point x="270" y="627"/>
      <point x="246" y="566" type="curve" smooth="yes"/>
    </contour>
    <contour>
      <point x="318" y="209" type="curve"/>
      <point x="343" y="209"/>
      <point x="363" y="227"/>
      <point x="363" y="273" type="curve" smooth="yes"/>
      <point x="363" y="314"/>
      <point x="346" y="333"/>
      <point x="318" y="333" type="curve" smooth="yes"/>
      <point x="288" y="333"/>
      <point x="271" y="311"/>
      <point x="271" y="273" type="curve" smooth="yes"/>
      <point x="271" y="227"/>
      <point x="286" y="209"/>
    </contour>
  </outline>
</glyph>
<glyph name="ba-wcho" format="2">
  <advance width="633"/>
  <unicode hex="1E2C2"/>
  <anchor x="414" y="660" name="top"/>
  <outline>
    <contour>
      <point x="115" y="0" type="line"/>
      <point x="187" y="0" type="line"/>
      <point x="490" y="660" type="line"/>
      <point x="462" y="717" type="line"/>
      <point x="455" y="718"/>
      <point x="441" y="720"/>
      <point x="416" y="720" type="curve" smooth="yes"/>
      <point x="253" y="720"/>
      <point x="50" y="586"/>
      <point x="50" y="332" type="curve" smooth="yes"/>
      <point x="50" y="70"/>
      <point x="235" y="-10"/>
      <point x="372" y="-10" type="curve" smooth="yes"/>
      <point x="510" y="-10"/>
      <point x="583" y="72"/>
      <point x="583" y="158" type="curve" smooth="yes"/>
      <point x="583" y="235"/>
      <point x="524" y="289"/>
      <point x="425" y="289" type="curve" smooth="yes"/>
      <point x="419" y="289"/>
      <point x="414" y="289"/>
      <point x="408" y="289" type="curve"/>
      <point x="408" y="224" type="line"/>
      <point x="413" y="224"/>
      <point x="417" y="224"/>
      <point x="421" y="224" type="curve" smooth="yes"/>
      <point x="477" y="224"/>
      <point x="511" y="194"/>
      <point x="511" y="155" type="curve" smooth="yes"/>
      <point x="511" y="112"/>
      <point x="468" y="55"/>
      <point x="369" y="55" type="curve" smooth="yes"/>
      <point x="274" y="55"/>
      <point x="122" y="106"/>
      <point x="122" y="329" type="curve" smooth="yes"/>
      <point x="122" y="540"/>
      <point x="290" y="657"/>
      <point x="431" y="657" type="curve" smooth="yes"/>
      <point x="432" y="657"/>
      <point x="434" y="657"/>
      <point x="439" y="657" type="curve"/>
      <point x="444" y="656"/>
      <point x="449" y="656"/>
      <point x="452" y="656" type="curve"/>
      <point x="438" y="703" type="line"/>
    </contour>
  </outline>
</glyph>
<glyph name="ca-wcho" format="2">
  <advance width="733"/>
  <unicode hex="1E2C3"/>
  <anchor x="483" y="660" name="top"/>
  <outline>
    <contour>
      <point x="25" y="0" type="line"/>
      <point x="97" y="0" type="line"/>
      <point x="290" y="483" type="line"/>
      <point x="245" y="455" type="line"/>
      <point x="240" y="346"/>
      <point x="334" y="236"/>
      <point x="485" y="236" type="curve" smooth="yes"/>
      <point x="598" y="236"/>
      <point x="683" y="301"/>
      <point x="683" y="397" type="curve" smooth="yes"/>
      <point x="683" y="467"/>
      <point x="636" y="516"/>
      <point x="563" y="516" type="curve" smooth="yes"/>
      <point x="521" y="516"/>
      <point x="480" y="499"/>
      <point x="451" y="471" type="curve"/>
      <point x="489" y="421" type="line"/>
      <point x="508" y="438"/>
      <point x="530" y="447"/>
      <point x="553" y="447" type="curve" smooth="yes"/>
      <point x="589" y="447"/>
      <point x="611" y="423"/>
      <point x="611" y="391" type="curve" smooth="yes"/>
      <point x="611" y="336"/>
      <point x="545" y="301"/>
      <point x="481" y="301" type="curve" smooth="yes"/>
      <point x="369" y="301"/>
      <point x="317" y="404"/>
      <point x="317" y="489" type="curve" smooth="yes"/>
      <point x="317" y="583"/>
      <point x="382" y="655"/>
      <point x="478" y="655" type="curve" smooth="yes"/>
      <point x="533" y="655"/>
      <point x="583" y="633"/>
      <point x="622" y="584" type="curve"/>
      <point x="671" y="634" type="line"/>
      <point x="617" y="695"/>
      <point x="556" y="720"/>
      <point x="478" y="720" type="curve" smooth="yes"/>
      <point x="377" y="720"/>
      <point x="294" y="675"/>
      <point x="248" y="559" type="curve" smooth="yes"/>
    </contour>
  </outline>
</glyph>
<glyph name="da-wcho" format="2">
  <advance width="497"/>
  <unicode hex="1E2C4"/>
  <anchor x="241" y="660" name="top"/>
  <outline>
    <contour>
      <point x="213" y="-10" type="curve" smooth="yes"/>
      <point x="331" y="-10"/>
      <point x="413" y="61"/>
      <point x="413" y="160" type="curve"/>
      <point x="341" y="160" type="line"/>
      <point x="341" y="118"/>
      <point x="316" y="55"/>
      <point x="227" y="55" type="curve" smooth="yes"/>
      <point x="178" y="55"/>
      <point x="122" y="75"/>
      <point x="122" y="141" type="curve" smooth="yes"/>
      <point x="122" y="191"/>
      <point x="152" y="233"/>
      <point x="196" y="294" type="curve" smooth="yes"/>
      <point x="309" y="449"/>
      <point x="384" y="529"/>
      <point x="384" y="609" type="curve" smooth="yes"/>
      <point x="384" y="666"/>
      <point x="336" y="720"/>
      <point x="243" y="720" type="curve" smooth="yes"/>
      <point x="138" y="720"/>
      <point x="74" y="657"/>
      <point x="74" y="581" type="curve" smooth="yes"/>
      <point x="74" y="482"/>
      <point x="182" y="415"/>
      <point x="342" y="415" type="curve" smooth="yes"/>
      <point x="396" y="415"/>
      <point x="434" y="423"/>
      <point x="457" y="429" type="curve"/>
      <point x="440" y="493" type="line"/>
      <point x="421" y="487"/>
      <point x="392" y="480"/>
      <point x="342" y="480" type="curve" smooth="yes"/>
      <point x="229" y="480"/>
      <point x="146" y="515"/>
      <point x="146" y="580" type="curve" smooth="yes"/>
      <point x="146" y="626"/>
      <point x="188" y="655"/>
      <point x="238" y="655" type="curve" smooth="yes"/>
      <point x="283" y="655"/>
      <point x="312" y="631"/>
      <point x="312" y="599" type="curve" smooth="yes"/>
      <point x="312" y="555"/>
      <point x="258" y="502"/>
      <point x="138" y="334" type="curve" smooth="yes"/>
      <point x="76" y="247"/>
      <point x="50" y="191"/>
      <point x="50" y="132" type="curve" smooth="yes"/>
      <point x="50" y="46"/>
      <point x="109" y="-10"/>
    </contour>
  </outline>
</glyph>
<glyph name="ga-wcho" format="2">
  <advance width="564"/>
  <unicode hex="1E2C5"/>
  <anchor x="292" y="660" name="top"/>
  <outline>
    <contour>
      <point x="25" y="109" type="line"/>
      <point x="65" y="58"/>
      <point x="150" y="-10"/>
      <point x="286" y="-10" type="curve" smooth="yes"/>
      <point x="431" y="-10"/>
      <point x="514" y="70"/>
      <point x="514" y="159" type="curve" smooth="yes"/>
      <point x="514" y="233"/>
      <point x="455" y="282"/>
      <point x="356" y="282" type="curve" smooth="yes"/>
      <point x="339" y="282" type="line"/>
      <point x="339" y="222" type="line"/>
      <point x="352" y="222" type="line" smooth="yes"/>
      <point x="408" y="222"/>
      <point x="442" y="190"/>
      <point x="442" y="153" type="curve" smooth="yes"/>
      <point x="442" y="108"/>
      <point x="393" y="55"/>
      <point x="289" y="55" type="curve" smooth="yes"/>
      <point x="199" y="55"/>
      <point x="138" y="90"/>
      <point x="103" y="122" type="curve"/>
      <point x="342" y="720" type="line"/>
      <point x="270" y="720" type="line"/>
    </contour>
  </outline>
</glyph>
<glyph name="ya-wcho" format="2">
  <advance width="528"/>
  <unicode hex="1E2C6"/>
  <anchor x="354" y="660" name="top"/>
  <outline>
    <contour>
      <point x="49" y="0" type="line"/>
      <point x="435" y="0" type="line"/>
      <point x="435" y="65" type="line"/>
      <point x="365" y="72"/>
      <point x="331" y="102"/>
      <point x="331" y="153" type="curve" smooth="yes"/>
      <point x="331" y="190"/>
      <point x="359" y="225"/>
      <point x="411" y="225" type="curve" smooth="yes"/>
      <point x="426" y="225"/>
      <point x="439" y="222"/>
      <point x="450" y="215" type="curve"/>
      <point x="478" y="276" type="line"/>
      <point x="460" y="285"/>
      <point x="439" y="290"/>
      <point x="415" y="290" type="curve" smooth="yes"/>
      <point x="325" y="290"/>
      <point x="264" y="226"/>
      <point x="264" y="153" type="curve" smooth="yes"/>
      <point x="264" y="72"/>
      <point x="315" y="36"/>
      <point x="413" y="19" type="curve"/>
      <point x="413" y="65" type="line"/>
      <point x="105" y="65" type="line"/>
      <point x="400" y="710" type="line"/>
      <point x="328" y="710" type="line"/>
      <point x="25" y="51" type="line"/>
    </contour>
  </outline>
</glyph>
<glyph name="pha-wcho" format="2">
  <advance width="808"/>
  <unicode hex="1E2C7"/>
  <anchor x="405" y="660" name="top"/>
  <outline>
    <contour>
      <point x="401" y="-10" type="curve" smooth="yes"/>
      <point x="613" y="-10"/>
      <point x="758" y="136"/>
      <point x="758" y="366" type="curve" smooth="yes"/>
      <point x="758" y="599"/>
      <point x="656" y="720"/>
      <point x="477" y="720" type="curve" smooth="yes"/>
      <point x="357" y="720"/>
      <point x="241" y="620"/>
      <point x="241" y="512" type="curve" smooth="yes"/>
      <point x="241" y="412"/>
      <point x="316" y="348"/>
      <point x="397" y="348" type="curve" smooth="yes"/>
      <point x="481" y="348"/>
      <point x="560" y="420"/>
      <point x="560" y="513" type="curve" smooth="yes"/>
      <point x="560" y="618"/>
      <point x="458" y="720"/>
      <point x="340" y="720" type="curve" smooth="yes"/>
      <point x="164" y="720"/>
      <point x="50" y="596"/>
      <point x="50" y="367" type="curve" smooth="yes"/>
      <point x="50" y="137"/>
      <point x="178" y="-10"/>
    </contour>
    <contour>
      <point x="333" y="655" type="curve" smooth="yes"/>
      <point x="408" y="655"/>
      <point x="488" y="595"/>
      <point x="488" y="511" type="curve" smooth="yes"/>
      <point x="488" y="445"/>
      <point x="443" y="408"/>
      <point x="399" y="408" type="curve" smooth="yes"/>
      <point x="357" y="408"/>
      <point x="313" y="445"/>
      <point x="313" y="511" type="curve" smooth="yes"/>
      <point x="313" y="595"/>
      <point x="388" y="655"/>
      <point x="471" y="655" type="curve" smooth="yes"/>
      <point x="592" y="655"/>
      <point x="686" y="569"/>
      <point x="686" y="366" type="curve" smooth="yes"/>
      <point x="686" y="163"/>
      <point x="560" y="55"/>
      <point x="401" y="55" type="curve" smooth="yes"/>
      <point x="240" y="55"/>
      <point x="122" y="163"/>
      <point x="122" y="366" type="curve" smooth="yes"/>
      <point x="122" y="560"/>
      <point x="209" y="655"/>
    </contour>
  </outline>
</glyph>
<glyph name="la-wcho" format="2">
  <advance width="578"/>
  <unicode hex="1E2C8"/>
  <anchor x="159" y="660" name="top"/>
  <outline>
    <contour>
      <point x="149" y="720" type="curve" smooth="yes"/>
      <point x="83" y="720"/>
      <point x="30" y="671"/>
      <point x="30" y="604" type="curve" smooth="yes"/>
      <point x="30" y="510"/>
      <point x="125" y="433"/>
      <point x="261" y="433" type="curve" smooth="yes"/>
      <point x="400" y="433"/>
      <point x="520" y="512"/>
      <point x="520" y="701" type="curve" smooth="yes"/>
      <point x="520" y="710" type="line"/>
      <point x="448" y="710" type="line"/>
      <point x="448" y="691" type="line" smooth="yes"/>
      <point x="448" y="561"/>
      <point x="361" y="498"/>
      <point x="251" y="498" type="curve" smooth="yes"/>
      <point x="168" y="498"/>
      <point x="102" y="541"/>
      <point x="102" y="597" type="curve" smooth="yes"/>
      <point x="102" y="631"/>
      <point x="124" y="655"/>
      <point x="153" y="655" type="curve" smooth="yes"/>
      <point x="191" y="655"/>
      <point x="221" y="613"/>
      <point x="240" y="566" type="curve" smooth="yes"/>
      <point x="466" y="0" type="line"/>
      <point x="538" y="0" type="line"/>
      <point x="299" y="596" type="line" smooth="yes"/>
      <point x="266" y="678"/>
      <point x="224" y="720"/>
    </contour>
  </outline>
</glyph>
<glyph name="na-wcho" format="2">
  <advance width="508"/>
  <unicode hex="1E2C9"/>
  <anchor x="344" y="660" name="top"/>
  <outline>
    <contour>
      <point x="56" y="0" type="line"/>
      <point x="468" y="0" type="line"/>
      <point x="468" y="65" type="line"/>
      <point x="103" y="65" type="line"/>
      <point x="398" y="710" type="line"/>
      <point x="326" y="710" type="line"/>
      <point x="25" y="53" type="line"/>
    </contour>
  </outline>
</glyph>
<glyph name="pa-wcho" format="2">
  <advance width="653"/>
  <unicode hex="1E2CA"/>
  <anchor x="394" y="660" name="top"/>
  <outline>
    <contour>
      <point x="25" y="0" type="line"/>
      <point x="97" y="0" type="line"/>
      <point x="392" y="632" type="line"/>
      <point x="394" y="632" type="line"/>
      <point x="394" y="0" type="line"/>
      <point x="461" y="0" type="line" smooth="yes"/>
      <point x="540" y="0"/>
      <point x="601" y="38"/>
      <point x="634" y="75" type="curve"/>
      <point x="580" y="114" type="line"/>
      <point x="543" y="73"/>
      <point x="497" y="65"/>
      <point x="466" y="65" type="curve"/>
      <point x="466" y="710" type="line"/>
      <point x="355" y="710" type="line"/>
    </contour>
  </outline>
</glyph>
<glyph name="ta-wcho" format="2">
  <advance width="735"/>
  <unicode hex="1E2CB"/>
  <anchor x="507" y="660" name="top"/>
  <outline>
    <contour>
      <point x="225" y="-10" type="curve" smooth="yes"/>
      <point x="310" y="-10"/>
      <point x="365" y="47"/>
      <point x="389" y="141" type="curve"/>
      <point x="322" y="157" type="line"/>
      <point x="313" y="111"/>
      <point x="281" y="55"/>
      <point x="224" y="55" type="curve" smooth="yes"/>
      <point x="175" y="55"/>
      <point x="122" y="95"/>
      <point x="122" y="180" type="curve" smooth="yes"/>
      <point x="122" y="288"/>
      <point x="214" y="341"/>
      <point x="333" y="384" type="curve" smooth="yes"/>
      <point x="705" y="518" type="line"/>
      <point x="678" y="618"/>
      <point x="611" y="720"/>
      <point x="510" y="720" type="curve" smooth="yes"/>
      <point x="467" y="720"/>
      <point x="423" y="701"/>
      <point x="389" y="673" type="curve" smooth="yes"/>
      <point x="338" y="630" type="line" smooth="yes"/>
      <point x="304" y="601"/>
      <point x="273" y="594"/>
      <point x="251" y="594" type="curve" smooth="yes"/>
      <point x="201" y="594"/>
      <point x="165" y="628"/>
      <point x="155" y="671" type="curve"/>
      <point x="90" y="662" type="line"/>
      <point x="111" y="571"/>
      <point x="164" y="529"/>
      <point x="245" y="529" type="curve" smooth="yes"/>
      <point x="293" y="529"/>
      <point x="334" y="543"/>
      <point x="375" y="577" type="curve" smooth="yes"/>
      <point x="421" y="616" type="line" smooth="yes"/>
      <point x="448" y="639"/>
      <point x="476" y="655"/>
      <point x="506" y="655" type="curve" smooth="yes"/>
      <point x="547" y="655"/>
      <point x="586" y="624"/>
      <point x="615" y="555" type="curve"/>
      <point x="300" y="441" type="line" smooth="yes"/>
      <point x="145" y="385"/>
      <point x="50" y="300"/>
      <point x="50" y="176" type="curve" smooth="yes"/>
      <point x="50" y="67"/>
      <point x="127" y="-10"/>
    </contour>
  </outline>
</glyph>
<glyph name="tha-wcho" format="2">
  <advance width="703"/>
  <unicode hex="1E2CC"/>
  <anchor x="333" y="660" name="top"/>
  <outline>
    <contour>
      <point x="347" y="436" type="curve" smooth="yes"/>
      <point x="244" y="436"/>
      <point x="217" y="498"/>
      <point x="217" y="548" type="curve" smooth="yes"/>
      <point x="217" y="611"/>
      <point x="259" y="655"/>
      <point x="327" y="655" type="curve" smooth="yes"/>
      <point x="389" y="655"/>
      <point x="416" y="607"/>
      <point x="416" y="533" type="curve" smooth="yes"/>
      <point x="416" y="92" type="line"/>
      <point x="387" y="110"/>
      <point x="356" y="118"/>
      <point x="327" y="118" type="curve" smooth="yes"/>
      <point x="254" y="118"/>
      <point x="203" y="65"/>
      <point x="150" y="65" type="curve" smooth="yes"/>
      <point x="124" y="65"/>
      <point x="101" y="77"/>
      <point x="75" y="103" type="curve"/>
      <point x="30" y="57" type="line"/>
      <point x="61" y="17"/>
      <point x="102" y="0"/>
      <point x="144" y="0" type="curve" smooth="yes"/>
      <point x="217" y="0"/>
      <point x="266" y="53"/>
      <point x="328" y="53" type="curve" smooth="yes"/>
      <point x="360" y="53"/>
      <point x="399" y="38"/>
      <point x="421" y="0" type="curve"/>
      <point x="488" y="0" type="line"/>
      <point x="488" y="548" type="line" smooth="yes"/>
      <point x="488" y="650"/>
      <point x="440" y="720"/>
      <point x="334" y="720" type="curve" smooth="yes"/>
      <point x="214" y="720"/>
      <point x="145" y="635"/>
      <point x="145" y="546" type="curve" smooth="yes"/>
      <point x="145" y="458"/>
      <point x="208" y="371"/>
      <point x="349" y="371" type="curve" smooth="yes"/>
      <point x="505" y="371"/>
      <point x="555" y="453"/>
      <point x="588" y="513" type="curve" smooth="yes"/>
      <point x="611" y="555"/>
      <point x="643" y="591"/>
      <point x="713" y="605" type="curve"/>
      <point x="713" y="670" type="line"/>
      <point x="593" y="658"/>
      <point x="552" y="584"/>
      <point x="528" y="539" type="curve" smooth="yes"/>
      <point x="496" y="479"/>
      <point x="466" y="436"/>
    </contour>
  </outline>
</glyph>
<glyph name="fa-wcho" format="2">
  <advance width="792"/>
  <unicode hex="1E2CD"/>
  <anchor x="354" y="660" name="top"/>
  <outline>
    <contour>
      <point x="373" y="720" type="line"/>
      <point x="301" y="720" type="line"/>
      <point x="579" y="343" type="line"/>
      <point x="628" y="375" type="line"/>
    </contour>
    <contour>
      <point x="20" y="325" type="line"/>
      <point x="772" y="325" type="line"/>
      <point x="772" y="390" type="line"/>
      <point x="20" y="390" type="line"/>
    </contour>
    <contour>
      <point x="301" y="-3" type="line"/>
      <point x="373" y="-3" type="line"/>
      <point x="628" y="342" type="line"/>
      <point x="579" y="374" type="line"/>
    </contour>
  </outline>
</glyph>
<glyph name="sa-wcho" format="2">
  <advance width="780"/>
  <unicode hex="1E2CE"/>
  <anchor x="608" y="660" name="top"/>
  <outline>
    <contour>
      <point x="167" y="-10" type="curve" smooth="yes"/>
      <point x="223" y="-10"/>
      <point x="268" y="24"/>
      <point x="294" y="80" type="curve" smooth="yes"/>
      <point x="521" y="573" type="line" smooth="yes"/>
      <point x="545" y="625"/>
      <point x="567" y="655"/>
      <point x="606" y="655" type="curve" smooth="yes"/>
      <point x="642" y="655"/>
      <point x="660" y="632"/>
      <point x="660" y="600" type="curve" smooth="yes"/>
      <point x="660" y="538"/>
      <point x="596" y="495"/>
      <point x="493" y="495" type="curve" smooth="yes"/>
      <point x="368" y="495"/>
      <point x="310" y="569"/>
      <point x="288" y="602" type="curve"/>
      <point x="240" y="555" type="line"/>
      <point x="267" y="521"/>
      <point x="346" y="430"/>
      <point x="494" y="430" type="curve" smooth="yes"/>
      <point x="635" y="430"/>
      <point x="732" y="514"/>
      <point x="732" y="609" type="curve" smooth="yes"/>
      <point x="732" y="667"/>
      <point x="697" y="720"/>
      <point x="611" y="720" type="curve" smooth="yes"/>
      <point x="536" y="720"/>
      <point x="492" y="669"/>
      <point x="461" y="601" type="curve" smooth="yes"/>
      <point x="233" y="107" type="line" smooth="yes"/>
      <point x="215" y="67"/>
      <point x="189" y="55"/>
      <point x="170" y="55" type="curve" smooth="yes"/>
      <point x="146" y="55"/>
      <point x="122" y="74"/>
      <point x="122" y="107" type="curve" smooth="yes"/>
      <point x="122" y="141"/>
      <point x="144" y="177"/>
      <point x="195" y="177" type="curve" smooth="yes"/>
      <point x="237" y="177"/>
      <point x="273" y="152"/>
      <point x="299" y="130" type="curve" smooth="yes"/>
      <point x="361" y="78"/>
      <point x="416" y="-10"/>
      <point x="539" y="-10" type="curve" smooth="yes"/>
      <point x="606" y="-10"/>
      <point x="674" y="18"/>
      <point x="740" y="60" type="curve"/>
      <point x="707" y="112" type="line"/>
      <point x="642" y="69"/>
      <point x="585" y="56"/>
      <point x="547" y="56" type="curve" smooth="yes"/>
      <point x="447" y="56"/>
      <point x="393" y="139"/>
      <point x="337" y="186" type="curve" smooth="yes"/>
      <point x="300" y="217"/>
      <point x="250" y="242"/>
      <point x="193" y="242" type="curve" smooth="yes"/>
      <point x="105" y="242"/>
      <point x="50" y="179"/>
      <point x="50" y="106" type="curve" smooth="yes"/>
      <point x="50" y="31"/>
      <point x="107" y="-10"/>
    </contour>
  </outline>
</glyph>
<glyph name="ja-wcho" format="2">
  <advance width="534"/>
  <unicode hex="1E2D0"/>
  <anchor x="216" y="660" name="top"/>
  <outline>
    <contour>
      <point x="183" y="0" type="line"/>
      <point x="255" y="0" type="line"/>
      <point x="121" y="428" type="line"/>
      <point x="485" y="428" type="line"/>
      <point x="500" y="484" type="line"/>
      <point x="432" y="622"/>
      <point x="340" y="720"/>
      <point x="219" y="720" type="curve" smooth="yes"/>
      <point x="135" y="720"/>
      <point x="86" y="670"/>
      <point x="64" y="605" type="curve"/>
      <point x="136" y="605" type="line"/>
      <point x="154" y="641"/>
      <point x="189" y="655"/>
      <point x="225" y="655" type="curve" smooth="yes"/>
      <point x="316" y="655"/>
      <point x="379" y="565"/>
      <point x="417" y="493" type="curve"/>
      <point x="103" y="493" type="line"/>
      <point x="36" y="468" type="line"/>
    </contour>
  </outline>
</glyph>
<glyph name="za-wcho" format="2">
  <advance width="534"/>
  <unicode hex="1E2D1"/>
  <anchor x="216" y="660" name="top"/>
  <outline>
    <contour>
      <point x="183" y="0" type="line"/>
      <point x="255" y="0" type="line"/>
      <point x="121" y="428" type="line"/>
      <point x="485" y="428" type="line"/>
      <point x="500" y="484" type="line"/>
      <point x="432" y="622"/>
      <point x="340" y="720"/>
      <point x="219" y="720" type="curve" smooth="yes"/>
      <point x="135" y="720"/>
      <point x="86" y="670"/>
      <point x="64" y="605" type="curve"/>
      <point x="136" y="605" type="line"/>
      <point x="154" y="641"/>
      <point x="189" y="655"/>
      <point x="225" y="655" type="curve" smooth="yes"/>
      <point x="316" y="655"/>
      <point x="379" y="565"/>
      <point x="417" y="493" type="curve"/>
      <point x="103" y="493" type="line"/>
      <point x="36" y="468" type="line"/>
    </contour>
    <contour>
      <point x="319" y="214" type="curve"/>
      <point x="344" y="214"/>
      <point x="364" y="232"/>
      <point x="364" y="278" type="curve" smooth="yes"/>
      <point x="364" y="319"/>
      <point x="347" y="338"/>
      <point x="319" y="338" type="curve" smooth="yes"/>
      <point x="289" y="338"/>
      <point x="272" y="316"/>
      <point x="272" y="278" type="curve" smooth="yes"/>
      <point x="272" y="232"/>
      <point x="287" y="214"/>
    </contour>
  </outline>
</glyph>
<glyph name="wa-wcho" format="2">
  <advance width="769"/>
  <unicode hex="1E2D2"/>
  <anchor x="385" y="660" name="top"/>
  <outline>
    <contour>
      <point x="227" y="-10" type="curve"/>
      <point x="282" y="39" type="line"/>
      <point x="141" y="208"/>
      <point x="122" y="300"/>
      <point x="122" y="413" type="curve" smooth="yes"/>
      <point x="122" y="538"/>
      <point x="181" y="655"/>
      <point x="250" y="655" type="curve" smooth="yes"/>
      <point x="314" y="655"/>
      <point x="349" y="599"/>
      <point x="349" y="288" type="curve"/>
      <point x="421" y="288" type="line"/>
      <point x="421" y="599"/>
      <point x="455" y="655"/>
      <point x="519" y="655" type="curve" smooth="yes"/>
      <point x="588" y="655"/>
      <point x="647" y="538"/>
      <point x="647" y="413" type="curve" smooth="yes"/>
      <point x="647" y="300"/>
      <point x="628" y="208"/>
      <point x="487" y="39" type="curve"/>
      <point x="542" y="-10" type="line"/>
      <point x="700" y="189"/>
      <point x="719" y="283"/>
      <point x="719" y="414" type="curve" smooth="yes"/>
      <point x="719" y="582"/>
      <point x="628" y="720"/>
      <point x="509" y="720" type="curve" smooth="yes"/>
      <point x="447" y="720"/>
      <point x="398" y="691"/>
      <point x="378" y="592" type="curve"/>
      <point x="392" y="592" type="line"/>
      <point x="371" y="691"/>
      <point x="322" y="720"/>
      <point x="260" y="720" type="curve" smooth="yes"/>
      <point x="141" y="720"/>
      <point x="50" y="582"/>
      <point x="50" y="414" type="curve" smooth="yes"/>
      <point x="50" y="283"/>
      <point x="69" y="189"/>
    </contour>
  </outline>
</glyph>
<glyph name="va-wcho" format="2">
  <advance width="581"/>
  <unicode hex="1E2D3"/>
  <anchor x="414" y="660" name="top"/>
  <outline>
    <contour>
      <point x="40" y="0" type="line"/>
      <point x="112" y="0" type="line"/>
      <point x="335" y="565" type="line" smooth="yes"/>
      <point x="351" y="606"/>
      <point x="385" y="655"/>
      <point x="431" y="655" type="curve" smooth="yes"/>
      <point x="460" y="655"/>
      <point x="479" y="629"/>
      <point x="479" y="600" type="curve" smooth="yes"/>
      <point x="479" y="516"/>
      <point x="380" y="466"/>
      <point x="274" y="466" type="curve" smooth="yes"/>
      <point x="151" y="466"/>
      <point x="121" y="531"/>
      <point x="121" y="587" type="curve" smooth="yes"/>
      <point x="121" y="616"/>
      <point x="129" y="647"/>
      <point x="170" y="696" type="curve"/>
      <point x="108" y="720" type="line"/>
      <point x="61" y="668"/>
      <point x="49" y="615"/>
      <point x="49" y="579" type="curve" smooth="yes"/>
      <point x="49" y="495"/>
      <point x="123" y="401"/>
      <point x="270" y="401" type="curve" smooth="yes"/>
      <point x="414" y="401"/>
      <point x="551" y="492"/>
      <point x="551" y="600" type="curve" smooth="yes"/>
      <point x="551" y="661"/>
      <point x="516" y="720"/>
      <point x="437" y="720" type="curve" smooth="yes"/>
      <point x="360" y="720"/>
      <point x="307" y="670"/>
      <point x="279" y="600" type="curve" smooth="yes"/>
    </contour>
  </outline>
</glyph>
<glyph name="ka-wcho" format="2">
  <advance width="587"/>
  <unicode hex="1E2D4"/>
  <anchor x="295" y="660" name="top"/>
  <outline>
    <contour>
      <point x="70" y="0" type="line"/>
      <point x="142" y="0" type="line"/>
      <point x="142" y="497" type="line" smooth="yes"/>
      <point x="142" y="600"/>
      <point x="194" y="655"/>
      <point x="296" y="655" type="curve" smooth="yes"/>
      <point x="397" y="655"/>
      <point x="445" y="600"/>
      <point x="445" y="497" type="curve" smooth="yes"/>
      <point x="445" y="0" type="line"/>
      <point x="517" y="0" type="line"/>
      <point x="517" y="516" type="line" smooth="yes"/>
      <point x="517" y="650"/>
      <point x="439" y="720"/>
      <point x="296" y="720" type="curve" smooth="yes"/>
      <point x="152" y="720"/>
      <point x="70" y="650"/>
      <point x="70" y="516" type="curve" smooth="yes"/>
    </contour>
  </outline>
</glyph>
<glyph name="o-wcho" format="2">
  <advance width="614"/>
  <unicode hex="1E2D5"/>
  <anchor x="351" y="660" name="top"/>
  <outline>
    <contour>
      <point x="472" y="0" type="line"/>
      <point x="544" y="0" type="line"/>
      <point x="544" y="539" type="line" smooth="yes"/>
      <point x="544" y="649"/>
      <point x="474" y="720"/>
      <point x="351" y="720" type="curve" smooth="yes"/>
      <point x="210" y="720"/>
      <point x="144" y="625"/>
      <point x="144" y="536" type="curve" smooth="yes"/>
      <point x="144" y="520"/>
      <point x="145" y="514"/>
      <point x="147" y="503" type="curve"/>
      <point x="40" y="503" type="line"/>
      <point x="40" y="438" type="line"/>
      <point x="211" y="438" type="line"/>
      <point x="211" y="510" type="line" smooth="yes"/>
      <point x="211" y="577"/>
      <point x="242" y="655"/>
      <point x="351" y="655" type="curve" smooth="yes"/>
      <point x="455" y="655"/>
      <point x="472" y="588"/>
      <point x="472" y="529" type="curve" smooth="yes"/>
    </contour>
  </outline>
</glyph>
<glyph name="au-wcho" format="2">
  <advance width="614"/>
  <unicode hex="1E2D6"/>
  <anchor x="351" y="660" name="top"/>
  <outline>
    <contour>
      <point x="472" y="0" type="line"/>
      <point x="544" y="0" type="line"/>
      <point x="544" y="539" type="line" smooth="yes"/>
      <point x="544" y="649"/>
      <point x="474" y="720"/>
      <point x="351" y="720" type="curve" smooth="yes"/>
      <point x="210" y="720"/>
      <point x="144" y="625"/>
      <point x="144" y="536" type="curve" smooth="yes"/>
      <point x="144" y="520"/>
      <point x="145" y="514"/>
      <point x="147" y="503" type="curve"/>
      <point x="40" y="503" type="line"/>
      <point x="40" y="438" type="line"/>
      <point x="211" y="438" type="line"/>
      <point x="211" y="510" type="line" smooth="yes"/>
      <point x="211" y="577"/>
      <point x="242" y="655"/>
      <point x="351" y="655" type="curve" smooth="yes"/>
      <point x="455" y="655"/>
      <point x="472" y="588"/>
      <point x="472" y="529" type="curve" smooth="yes"/>
    </contour>
    <contour>
      <point x="327" y="422" type="curve"/>
      <point x="352" y="422"/>
      <point x="372" y="440"/>
      <point x="372" y="486" type="curve" smooth="yes"/>
      <point x="372" y="527"/>
      <point x="355" y="546"/>
      <point x="327" y="546" type="curve" smooth="yes"/>
      <point x="297" y="546"/>
      <point x="280" y="524"/>
      <point x="280" y="486" type="curve" smooth="yes"/>
      <point x="280" y="440"/>
      <point x="295" y="422"/>
    </contour>
  </outline>
</glyph>
<glyph name="ra-wcho" format="2">
  <advance width="546"/>
  <unicode hex="1E2D7"/>
  <anchor x="274" y="660" name="top"/>
  <outline>
    <contour>
      <point x="130" y="0" type="curve" smooth="yes"/>
      <point x="206" y="0"/>
      <point x="269" y="56"/>
      <point x="324" y="56" type="curve" smooth="yes"/>
      <point x="354" y="56"/>
      <point x="383" y="38"/>
      <point x="411" y="0" type="curve"/>
      <point x="476" y="0" type="line"/>
      <point x="476" y="576" type="line" smooth="yes"/>
      <point x="476" y="678"/>
      <point x="375" y="720"/>
      <point x="279" y="720" type="curve" smooth="yes"/>
      <point x="157" y="720"/>
      <point x="67" y="656"/>
      <point x="67" y="554" type="curve" smooth="yes"/>
      <point x="67" y="453"/>
      <point x="150" y="414"/>
      <point x="233" y="414" type="curve"/>
      <point x="233" y="479" type="line"/>
      <point x="196" y="479"/>
      <point x="135" y="490"/>
      <point x="135" y="555" type="curve" smooth="yes"/>
      <point x="135" y="623"/>
      <point x="203" y="655"/>
      <point x="278" y="655" type="curve" smooth="yes"/>
      <point x="336" y="655"/>
      <point x="404" y="635"/>
      <point x="404" y="565" type="curve" smooth="yes"/>
      <point x="404" y="90" type="line"/>
      <point x="382" y="108"/>
      <point x="355" y="121"/>
      <point x="323" y="121" type="curve" smooth="yes"/>
      <point x="253" y="121"/>
      <point x="193" y="65"/>
      <point x="139" y="65" type="curve" smooth="yes"/>
      <point x="114" y="65"/>
      <point x="92" y="78"/>
      <point x="69" y="107" type="curve"/>
      <point x="20" y="57" type="line"/>
      <point x="51" y="17"/>
      <point x="91" y="0"/>
    </contour>
  </outline>
</glyph>
<glyph name="ma-wcho" format="2">
  <advance width="690"/>
  <unicode hex="1E2D8"/>
  <anchor x="376" y="660" name="top"/>
  <outline>
    <contour>
      <point x="440" y="-10" type="curve" smooth="yes"/>
      <point x="560" y="-10"/>
      <point x="614" y="70"/>
      <point x="614" y="142" type="curve" smooth="yes"/>
      <point x="614" y="218"/>
      <point x="544" y="265"/>
      <point x="477" y="265" type="curve"/>
      <point x="477" y="200" type="line"/>
      <point x="508" y="200"/>
      <point x="542" y="181"/>
      <point x="542" y="136" type="curve" smooth="yes"/>
      <point x="542" y="102"/>
      <point x="523" y="54"/>
      <point x="448" y="54" type="curve" smooth="yes"/>
      <point x="350" y="54"/>
      <point x="304" y="133"/>
      <point x="304" y="231" type="curve" smooth="yes"/>
      <point x="304" y="371"/>
      <point x="405" y="531"/>
      <point x="650" y="613" type="curve"/>
      <point x="650" y="669" type="line"/>
      <point x="375" y="581"/>
      <point x="232" y="429"/>
      <point x="232" y="232" type="curve" smooth="yes"/>
      <point x="232" y="89"/>
      <point x="299" y="-10"/>
    </contour>
    <contour>
      <point x="650" y="615" type="curve"/>
      <point x="650" y="669" type="line"/>
      <point x="553" y="705"/>
      <point x="457" y="720"/>
      <point x="375" y="720" type="curve" smooth="yes"/>
      <point x="152" y="720"/>
      <point x="50" y="605"/>
      <point x="50" y="490" type="curve" smooth="yes"/>
      <point x="50" y="414"/>
      <point x="94" y="372"/>
      <point x="166" y="366" type="curve"/>
      <point x="175" y="423" type="line"/>
      <point x="143" y="427"/>
      <point x="118" y="444"/>
      <point x="118" y="487" type="curve" smooth="yes"/>
      <point x="118" y="570"/>
      <point x="198" y="655"/>
      <point x="382" y="655" type="curve" smooth="yes"/>
      <point x="441" y="655"/>
      <point x="525" y="646"/>
    </contour>
  </outline>
</glyph>
<glyph name="kha-wcho" format="2">
  <advance width="728"/>
  <unicode hex="1E2D9"/>
  <anchor x="350" y="660" name="top"/>
  <outline>
    <contour>
      <point x="355" y="643" type="line"/>
      <point x="586" y="70" type="line"/>
      <point x="575" y="64"/>
      <point x="556" y="55"/>
      <point x="529" y="55" type="curve" smooth="yes"/>
      <point x="481" y="55"/>
      <point x="446" y="82"/>
      <point x="446" y="129" type="curve" smooth="yes"/>
      <point x="446" y="220"/>
      <point x="559" y="287"/>
      <point x="688" y="306" type="curve"/>
      <point x="664" y="367" type="line"/>
      <point x="467" y="334"/>
      <point x="374" y="244"/>
      <point x="374" y="128" type="curve" smooth="yes"/>
      <point x="374" y="39"/>
      <point x="440" y="-10"/>
      <point x="526" y="-10" type="curve" smooth="yes"/>
      <point x="576" y="-10"/>
      <point x="627" y="8"/>
      <point x="673" y="41" type="curve"/>
      <point x="403" y="710" type="line"/>
      <point x="308" y="710" type="line"/>
      <point x="30" y="0" type="line"/>
      <point x="102" y="0" type="line"/>
    </contour>
  </outline>
</glyph>
<glyph name="ha-wcho" format="2">
  <advance width="534"/>
  <unicode hex="1E2DA"/>
  <anchor x="259" y="660" name="top"/>
  <outline>
    <contour>
      <point x="39" y="154" type="curve"/>
      <point x="107" y="171" type="line"/>
      <point x="102" y="182"/>
      <point x="99" y="196"/>
      <point x="99" y="211" type="curve" smooth="yes"/>
      <point x="99" y="248"/>
      <point x="125" y="270"/>
      <point x="174" y="270" type="curve" smooth="yes"/>
      <point x="223" y="270"/>
      <point x="314" y="237"/>
      <point x="392" y="0" type="curve"/>
      <point x="443" y="29" type="line"/>
      <point x="360" y="283"/>
      <point x="252" y="335"/>
      <point x="174" y="335" type="curve" smooth="yes"/>
      <point x="99" y="335"/>
      <point x="27" y="288"/>
      <point x="27" y="211" type="curve" smooth="yes"/>
      <point x="27" y="191"/>
      <point x="32" y="172"/>
    </contour>
    <contour>
      <point x="392" y="0" type="line"/>
      <point x="464" y="0" type="line"/>
      <point x="464" y="542" type="line" smooth="yes"/>
      <point x="464" y="689"/>
      <point x="323" y="720"/>
      <point x="241" y="720" type="curve" smooth="yes"/>
      <point x="131" y="720"/>
      <point x="32" y="665"/>
      <point x="32" y="571" type="curve" smooth="yes"/>
      <point x="32" y="503"/>
      <point x="88" y="453"/>
      <point x="156" y="453" type="curve"/>
      <point x="156" y="518" type="line"/>
      <point x="124" y="518"/>
      <point x="104" y="542"/>
      <point x="104" y="575" type="curve" smooth="yes"/>
      <point x="104" y="635"/>
      <point x="170" y="655"/>
      <point x="239" y="655" type="curve" smooth="yes"/>
      <point x="297" y="655"/>
      <point x="392" y="641"/>
      <point x="392" y="537" type="curve" smooth="yes"/>
    </contour>
  </outline>
</glyph>
<glyph name="e-wcho" format="2">
  <advance width="737"/>
  <unicode hex="1E2DB"/>
  <anchor x="285" y="660" name="top"/>
  <outline>
    <contour>
      <point x="178" y="-10" type="curve" smooth="yes"/>
      <point x="265" y="-10"/>
      <point x="320" y="42"/>
      <point x="395" y="114" type="curve" smooth="yes"/>
      <point x="449" y="166"/>
      <point x="495" y="204"/>
      <point x="544" y="204" type="curve" smooth="yes"/>
      <point x="580" y="204"/>
      <point x="615" y="182"/>
      <point x="615" y="132" type="curve" smooth="yes"/>
      <point x="615" y="83"/>
      <point x="582" y="55"/>
      <point x="542" y="55" type="curve" smooth="yes"/>
      <point x="501" y="55"/>
      <point x="473" y="83"/>
      <point x="473" y="143" type="curve" smooth="yes"/>
      <point x="473" y="573" type="line" smooth="yes"/>
      <point x="473" y="683"/>
      <point x="379" y="720"/>
      <point x="285" y="720" type="curve" smooth="yes"/>
      <point x="157" y="720"/>
      <point x="71" y="655"/>
      <point x="71" y="570" type="curve" smooth="yes"/>
      <point x="71" y="503"/>
      <point x="127" y="453"/>
      <point x="195" y="453" type="curve"/>
      <point x="195" y="518" type="line"/>
      <point x="163" y="518"/>
      <point x="143" y="540"/>
      <point x="143" y="571" type="curve" smooth="yes"/>
      <point x="143" y="613"/>
      <point x="189" y="655"/>
      <point x="280" y="655" type="curve" smooth="yes"/>
      <point x="336" y="655"/>
      <point x="401" y="638"/>
      <point x="401" y="560" type="curve" smooth="yes"/>
      <point x="401" y="133" type="line" smooth="yes"/>
      <point x="401" y="49"/>
      <point x="455" y="-10"/>
      <point x="538" y="-10" type="curve" smooth="yes"/>
      <point x="622" y="-10"/>
      <point x="687" y="47"/>
      <point x="687" y="133" type="curve" smooth="yes"/>
      <point x="687" y="222"/>
      <point x="625" y="269"/>
      <point x="550" y="269" type="curve" smooth="yes"/>
      <point x="476" y="269"/>
      <point x="417" y="225"/>
      <point x="352" y="160" type="curve" smooth="yes"/>
      <point x="284" y="92"/>
      <point x="240" y="55"/>
      <point x="188" y="55" type="curve" smooth="yes"/>
      <point x="140" y="55"/>
      <point x="102" y="87"/>
      <point x="80" y="110" type="curve"/>
      <point x="30" y="65" type="line"/>
      <point x="72" y="6"/>
      <point x="130" y="-10"/>
    </contour>
  </outline>
</glyph>
<glyph name="i-wcho" format="2">
  <advance width="532"/>
  <unicode hex="1E2DC"/>
  <anchor x="265" y="660" name="top"/>
  <outline>
    <contour>
      <point x="255" y="-10" type="curve" smooth="yes"/>
      <point x="383" y="-10"/>
      <point x="447" y="55"/>
      <point x="481" y="104" type="curve"/>
      <point x="422" y="135" type="line"/>
      <point x="397" y="100"/>
      <point x="348" y="55"/>
      <point x="256" y="55" type="curve" smooth="yes"/>
      <point x="192" y="55"/>
      <point x="149" y="77"/>
      <point x="120" y="102" type="curve"/>
      <point x="502" y="644" type="line"/>
      <point x="481" y="710" type="line"/>
      <point x="30" y="710" type="line"/>
      <point x="30" y="645" type="line"/>
      <point x="430" y="645" type="line"/>
      <point x="38" y="89" type="line"/>
      <point x="70" y="36"/>
      <point x="145" y="-10"/>
    </contour>
  </outline>
</glyph>
<glyph name="nga-wcho" format="2">
  <advance width="541"/>
  <unicode hex="1E2DD"/>
  <anchor x="320" y="660" name="top"/>
  <outline>
    <contour>
      <point x="15" y="-7" type="line"/>
      <point x="26" y="-9"/>
      <point x="38" y="-10"/>
      <point x="50" y="-10" type="curve" smooth="yes"/>
      <point x="122" y="-10"/>
      <point x="189" y="36"/>
      <point x="216" y="134" type="curve" smooth="yes"/>
      <point x="273" y="344" type="line" smooth="yes"/>
      <point x="294" y="423"/>
      <point x="339" y="440"/>
      <point x="373" y="440" type="curve" smooth="yes"/>
      <point x="406" y="440"/>
      <point x="429" y="423"/>
      <point x="429" y="393" type="curve" smooth="yes"/>
      <point x="429" y="359"/>
      <point x="403" y="337"/>
      <point x="333" y="337" type="curve" smooth="yes"/>
      <point x="204" y="337"/>
      <point x="121" y="408"/>
      <point x="121" y="497" type="curve" smooth="yes"/>
      <point x="121" y="590"/>
      <point x="210" y="655"/>
      <point x="325" y="655" type="curve" smooth="yes"/>
      <point x="385" y="655"/>
      <point x="428" y="637"/>
      <point x="457" y="622" type="curve"/>
      <point x="491" y="680" type="line"/>
      <point x="444" y="705"/>
      <point x="394" y="720"/>
      <point x="330" y="720" type="curve" smooth="yes"/>
      <point x="171" y="720"/>
      <point x="49" y="628"/>
      <point x="49" y="497" type="curve" smooth="yes"/>
      <point x="49" y="370"/>
      <point x="167" y="272"/>
      <point x="323" y="272" type="curve" smooth="yes"/>
      <point x="439" y="272"/>
      <point x="501" y="332"/>
      <point x="501" y="398" type="curve" smooth="yes"/>
      <point x="501" y="460"/>
      <point x="449" y="506"/>
      <point x="378" y="506" type="curve" smooth="yes"/>
      <point x="318" y="506"/>
      <point x="238" y="473"/>
      <point x="209" y="365" type="curve" smooth="yes"/>
      <point x="158" y="172" type="line" smooth="yes"/>
      <point x="132" y="74"/>
      <point x="95" y="55"/>
      <point x="50" y="55" type="curve" smooth="yes"/>
      <point x="42" y="55"/>
      <point x="34" y="56"/>
      <point x="27" y="58" type="curve"/>
    </contour>
  </outline>
</glyph>
<glyph name="u-wcho" format="2">
  <advance width="750"/>
  <unicode hex="1E2DE"/>
  <anchor x="463" y="660" name="top"/>
  <outline>
    <contour>
      <point x="50" y="198"/>
      <point x="156" y="-10"/>
      <point x="398" y="-10" type="curve" smooth="yes"/>
      <point x="637" y="-10"/>
      <point x="700" y="197"/>
      <point x="700" y="343" type="curve" smooth="yes"/>
      <point x="700" y="525"/>
      <point x="606" y="670"/>
      <point x="463" y="670" type="curve" smooth="yes"/>
      <point x="359" y="670"/>
      <point x="266" y="591"/>
      <point x="266" y="465" type="curve" smooth="yes"/>
      <point x="266" y="392"/>
      <point x="299" y="329"/>
      <point x="321" y="292" type="curve"/>
      <point x="383" y="320" type="line"/>
      <point x="362" y="350"/>
      <point x="338" y="399"/>
      <point x="338" y="460" type="curve" smooth="yes"/>
      <point x="338" y="553"/>
      <point x="397" y="605"/>
      <point x="467" y="605" type="curve" smooth="yes"/>
      <point x="569" y="605"/>
      <point x="628" y="497"/>
      <point x="628" y="344" type="curve" smooth="yes"/>
      <point x="628" y="201"/>
      <point x="572" y="55"/>
      <point x="398" y="55" type="curve" smooth="yes"/>
      <point x="198" y="55"/>
      <point x="122" y="242"/>
      <point x="122" y="418" type="curve" smooth="yes"/>
      <point x="122" y="543"/>
      <point x="161" y="641"/>
      <point x="179" y="681" type="curve"/>
      <point x="116" y="720" type="line"/>
      <point x="85" y="654"/>
      <point x="50" y="551"/>
      <point x="50" y="422" type="curve" smooth="yes"/>
    </contour>
  </outline>
</glyph>
<glyph name="llha-wcho" format="2">
  <advance width="842"/>
  <unicode hex="1E2DF"/>
  <anchor x="264" y="660" name="top"/>
  <outline>
    <contour>
      <point x="70" y="0" type="line"/>
      <point x="142" y="0" type="line"/>
      <point x="142" y="517" type="line" smooth="yes"/>
      <point x="142" y="610"/>
      <point x="194" y="655"/>
      <point x="266" y="655" type="curve" smooth="yes"/>
      <point x="337" y="655"/>
      <point x="385" y="610"/>
      <point x="385" y="517" type="curve" smooth="yes"/>
      <point x="385" y="174" type="line" smooth="yes"/>
      <point x="385" y="50"/>
      <point x="467" y="-10"/>
      <point x="581" y="-10" type="curve" smooth="yes"/>
      <point x="694" y="-10"/>
      <point x="772" y="50"/>
      <point x="772" y="174" type="curve" smooth="yes"/>
      <point x="772" y="710" type="line"/>
      <point x="700" y="710" type="line"/>
      <point x="700" y="193" type="line" smooth="yes"/>
      <point x="700" y="100"/>
      <point x="652" y="55"/>
      <point x="581" y="55" type="curve" smooth="yes"/>
      <point x="509" y="55"/>
      <point x="457" y="100"/>
      <point x="457" y="193" type="curve" smooth="yes"/>
      <point x="457" y="536" type="line" smooth="yes"/>
      <point x="457" y="660"/>
      <point x="379" y="720"/>
      <point x="266" y="720" type="curve" smooth="yes"/>
      <point x="152" y="720"/>
      <point x="70" y="660"/>
      <point x="70" y="536" type="curve" smooth="yes"/>
    </contour>
  </outline>
</glyph>
<glyph name="tsa-wcho" format="2">
  <advance width="537"/>
  <unicode hex="1E2E0"/>
  <anchor x="264" y="660" name="top"/>
  <outline>
    <contour>
      <point x="174" y="655" type="line"/>
      <point x="227" y="655" type="line" smooth="yes"/>
      <point x="353" y="655"/>
      <point x="435" y="593"/>
      <point x="435" y="505" type="curve" smooth="yes"/>
      <point x="435" y="429"/>
      <point x="374" y="364"/>
      <point x="301" y="338" type="curve" smooth="yes"/>
      <point x="228" y="312" type="line" smooth="yes"/>
      <point x="132" y="278"/>
      <point x="30" y="191"/>
      <point x="30" y="48" type="curve" smooth="yes"/>
      <point x="30" y="34"/>
      <point x="31" y="18"/>
      <point x="36" y="0" type="curve"/>
      <point x="108" y="0" type="line"/>
      <point x="104" y="17"/>
      <point x="102" y="33"/>
      <point x="102" y="49" type="curve" smooth="yes"/>
      <point x="102" y="149"/>
      <point x="164" y="220"/>
      <point x="251" y="252" type="curve" smooth="yes"/>
      <point x="300" y="270" type="line" smooth="yes"/>
      <point x="424" y="315"/>
      <point x="507" y="400"/>
      <point x="507" y="512" type="curve" smooth="yes"/>
      <point x="507" y="651"/>
      <point x="383" y="720"/>
      <point x="193" y="720" type="curve" smooth="yes"/>
      <point x="76" y="720" type="line"/>
      <point x="364" y="0" type="line"/>
      <point x="436" y="0" type="line"/>
    </contour>
  </outline>
</glyph>
<glyph name="ong-wcho" format="2">
  <advance width="585"/>
  <unicode hex="1E2E2"/>
  <anchor x="291" y="660" name="top"/>
  <outline>
    <contour>
      <point x="227" y="-10" type="curve" smooth="yes"/>
      <point x="396" y="-10"/>
      <point x="535" y="97"/>
      <point x="535" y="267" type="curve" smooth="yes"/>
      <point x="535" y="428"/>
      <point x="429" y="490"/>
      <point x="288" y="490" type="curve" smooth="yes"/>
      <point x="155" y="490"/>
      <point x="46" y="428"/>
      <point x="46" y="333" type="curve" smooth="yes"/>
      <point x="46" y="263"/>
      <point x="93" y="221"/>
      <point x="168" y="221" type="curve" smooth="yes"/>
      <point x="251" y="221"/>
      <point x="312" y="273"/>
      <point x="364" y="368" type="curve" smooth="yes"/>
      <point x="524" y="659" type="line"/>
      <point x="491" y="720" type="line"/>
      <point x="40" y="607" type="line"/>
      <point x="58" y="545" type="line"/>
      <point x="472" y="649" type="line"/>
      <point x="462" y="677" type="line"/>
      <point x="317" y="414" type="line" smooth="yes"/>
      <point x="282" y="351"/>
      <point x="234" y="286"/>
      <point x="176" y="286" type="curve" smooth="yes"/>
      <point x="143" y="286"/>
      <point x="118" y="307"/>
      <point x="118" y="334" type="curve" smooth="yes"/>
      <point x="118" y="379"/>
      <point x="188" y="425"/>
      <point x="289" y="425" type="curve" smooth="yes"/>
      <point x="391" y="425"/>
      <point x="463" y="378"/>
      <point x="463" y="261" type="curve" smooth="yes"/>
      <point x="463" y="128"/>
      <point x="356" y="55"/>
      <point x="228" y="55" type="curve" smooth="yes"/>
      <point x="165" y="55"/>
      <point x="128" y="72"/>
      <point x="107" y="85" type="curve"/>
      <point x="69" y="29" type="line"/>
      <point x="105" y="9"/>
      <point x="155" y="-10"/>
    </contour>
  </outline>
</glyph>
<glyph name="aang-wcho" format="2">
  <advance width="722"/>
  <unicode hex="1E2E3"/>
  <anchor x="435" y="660" name="top"/>
  <outline>
    <contour>
      <point x="15" y="0" type="line"/>
      <point x="120" y="0"/>
      <point x="179" y="24"/>
      <point x="268" y="180" type="curve" smooth="yes"/>
      <point x="323" y="277"/>
      <point x="387" y="314"/>
      <point x="462" y="314" type="curve" smooth="yes"/>
      <point x="549" y="314"/>
      <point x="600" y="263"/>
      <point x="600" y="184" type="curve" smooth="yes"/>
      <point x="600" y="106"/>
      <point x="546" y="55"/>
      <point x="455" y="55" type="curve" smooth="yes"/>
      <point x="319" y="55"/>
      <point x="228" y="179"/>
      <point x="228" y="348" type="curve" smooth="yes"/>
      <point x="228" y="559"/>
      <point x="345" y="655"/>
      <point x="491" y="655" type="curve" smooth="yes"/>
      <point x="524" y="655"/>
      <point x="558" y="650"/>
      <point x="593" y="639" type="curve"/>
      <point x="593" y="706" type="line"/>
      <point x="553" y="716"/>
      <point x="515" y="720"/>
      <point x="479" y="720" type="curve" smooth="yes"/>
      <point x="298" y="720"/>
      <point x="156" y="594"/>
      <point x="156" y="348" type="curve" smooth="yes"/>
      <point x="156" y="144"/>
      <point x="283" y="-10"/>
      <point x="454" y="-10" type="curve" smooth="yes"/>
      <point x="589" y="-10"/>
      <point x="672" y="74"/>
      <point x="672" y="187" type="curve" smooth="yes"/>
      <point x="672" y="301"/>
      <point x="588" y="378"/>
      <point x="462" y="378" type="curve" smooth="yes"/>
      <point x="362" y="378"/>
      <point x="280" y="324"/>
      <point x="214" y="211" type="curve" smooth="yes"/>
      <point x="137" y="78"/>
      <point x="99" y="65"/>
      <point x="15" y="65" type="curve"/>
    </contour>
  </outline>
</glyph>
<glyph name="ang-wcho" format="2">
  <advance width="722"/>
  <unicode hex="1E2E4"/>
  <anchor x="424" y="660" name="top"/>
  <outline>
    <contour>
      <point x="15" y="0" type="line"/>
      <point x="120" y="0"/>
      <point x="179" y="24"/>
      <point x="268" y="180" type="curve" smooth="yes"/>
      <point x="323" y="277"/>
      <point x="387" y="314"/>
      <point x="462" y="314" type="curve" smooth="yes"/>
      <point x="549" y="314"/>
      <point x="600" y="263"/>
      <point x="600" y="184" type="curve" smooth="yes"/>
      <point x="600" y="106"/>
      <point x="546" y="55"/>
      <point x="455" y="55" type="curve" smooth="yes"/>
      <point x="319" y="55"/>
      <point x="228" y="179"/>
      <point x="228" y="348" type="curve" smooth="yes"/>
      <point x="228" y="559"/>
      <point x="345" y="655"/>
      <point x="491" y="655" type="curve" smooth="yes"/>
      <point x="524" y="655"/>
      <point x="558" y="650"/>
      <point x="593" y="639" type="curve"/>
      <point x="593" y="706" type="line"/>
      <point x="553" y="716"/>
      <point x="515" y="720"/>
      <point x="479" y="720" type="curve" smooth="yes"/>
      <point x="298" y="720"/>
      <point x="156" y="594"/>
      <point x="156" y="348" type="curve" smooth="yes"/>
      <point x="156" y="144"/>
      <point x="283" y="-10"/>
      <point x="454" y="-10" type="curve" smooth="yes"/>
      <point x="589" y="-10"/>
      <point x="672" y="74"/>
      <point x="672" y="187" type="curve" smooth="yes"/>
      <point x="672" y="301"/>
      <point x="588" y="378"/>
      <point x="462" y="378" type="curve" smooth="yes"/>
      <point x="362" y="378"/>
      <point x="280" y="324"/>
      <point x="214" y="211" type="curve" smooth="yes"/>
      <point x="137" y="78"/>
      <point x="99" y="65"/>
      <point x="15" y="65" type="curve"/>
    </contour>
    <contour>
      <point x="432" y="442" type="curve"/>
      <point x="457" y="442"/>
      <point x="477" y="460"/>
      <point x="477" y="506" type="curve" smooth="yes"/>
      <point x="477" y="547"/>
      <point x="460" y="566"/>
      <point x="432" y="566" type="curve" smooth="yes"/>
      <point x="402" y="566"/>
      <point x="385" y="544"/>
      <point x="385" y="506" type="curve" smooth="yes"/>
      <point x="385" y="460"/>
      <point x="400" y="442"/>
    </contour>
  </outline>
</glyph>
<glyph name="ing-wcho" format="2">
  <advance width="602"/>
  <unicode hex="1E2E5"/>
  <anchor x="282" y="660" name="top"/>
  <outline>
    <contour>
      <point x="246" y="-10" type="curve" smooth="yes"/>
      <point x="428" y="-10"/>
      <point x="552" y="140"/>
      <point x="552" y="388" type="curve" smooth="yes"/>
      <point x="552" y="577"/>
      <point x="473" y="720"/>
      <point x="297" y="720" type="curve" smooth="yes"/>
      <point x="155" y="720"/>
      <point x="48" y="636"/>
      <point x="48" y="503" type="curve" smooth="yes"/>
      <point x="48" y="389"/>
      <point x="129" y="303"/>
      <point x="253" y="303" type="curve" smooth="yes"/>
      <point x="288" y="303"/>
      <point x="321" y="310"/>
      <point x="348" y="322" type="curve"/>
      <point x="325" y="383" type="line"/>
      <point x="305" y="374"/>
      <point x="281" y="368"/>
      <point x="253" y="368" type="curve" smooth="yes"/>
      <point x="167" y="368"/>
      <point x="120" y="425"/>
      <point x="120" y="502" type="curve" smooth="yes"/>
      <point x="120" y="597"/>
      <point x="193" y="655"/>
      <point x="296" y="655" type="curve" smooth="yes"/>
      <point x="429" y="655"/>
      <point x="480" y="542"/>
      <point x="480" y="388" type="curve" smooth="yes"/>
      <point x="480" y="175"/>
      <point x="387" y="55"/>
      <point x="249" y="55" type="curve" smooth="yes"/>
      <point x="197" y="55"/>
      <point x="121" y="72"/>
      <point x="59" y="126" type="curve"/>
      <point x="21" y="74" type="line"/>
      <point x="101" y="12"/>
      <point x="177" y="-10"/>
    </contour>
  </outline>
</glyph>
<glyph name="on-wcho" format="2">
  <advance width="633"/>
  <unicode hex="1E2E6"/>
  <anchor x="195" y="660" name="top"/>
  <outline>
    <contour>
      <point x="177" y="0" type="line"/>
      <point x="249" y="0" type="line"/>
      <point x="127" y="311" type="line"/>
      <point x="453" y="168" type="line"/>
      <point x="521" y="0" type="line"/>
      <point x="593" y="0" type="line"/>
      <point x="354" y="596" type="line" smooth="yes"/>
      <point x="321" y="678"/>
      <point x="272" y="720"/>
      <point x="197" y="720" type="curve" smooth="yes"/>
      <point x="111" y="720"/>
      <point x="60" y="665"/>
      <point x="60" y="596" type="curve" smooth="yes"/>
      <point x="60" y="514"/>
      <point x="135" y="458"/>
      <point x="230" y="458" type="curve" smooth="yes"/>
      <point x="372" y="458"/>
      <point x="500" y="585"/>
      <point x="510" y="710" type="curve"/>
      <point x="438" y="710" type="line"/>
      <point x="428" y="609"/>
      <point x="333" y="523"/>
      <point x="235" y="523" type="curve" smooth="yes"/>
      <point x="184" y="523"/>
      <point x="132" y="547"/>
      <point x="132" y="596" type="curve" smooth="yes"/>
      <point x="132" y="631"/>
      <point x="157" y="655"/>
      <point x="196" y="655" type="curve" smooth="yes"/>
      <point x="249" y="655"/>
      <point x="277" y="609"/>
      <point x="297" y="560" type="curve" smooth="yes"/>
      <point x="417" y="260" type="line"/>
      <point x="89" y="404" type="line"/>
      <point x="40" y="348" type="line"/>
    </contour>
  </outline>
</glyph>
<glyph name="en-wcho" format="2">
  <advance width="544"/>
  <unicode hex="1E2E7"/>
  <anchor x="219" y="660" name="top"/>
  <outline>
    <contour>
      <point x="254" y="-10" type="curve" smooth="yes"/>
      <point x="331" y="-10"/>
      <point x="407" y="33"/>
      <point x="407" y="124" type="curve" smooth="yes"/>
      <point x="407" y="558" type="line" smooth="yes"/>
      <point x="407" y="665"/>
      <point x="317" y="720"/>
      <point x="217" y="720" type="curve" smooth="yes"/>
      <point x="105" y="720"/>
      <point x="25" y="652"/>
      <point x="25" y="569" type="curve" smooth="yes"/>
      <point x="25" y="500"/>
      <point x="81" y="443"/>
      <point x="149" y="443" type="curve"/>
      <point x="149" y="508" type="line"/>
      <point x="117" y="508"/>
      <point x="97" y="535"/>
      <point x="97" y="572" type="curve" smooth="yes"/>
      <point x="97" y="623"/>
      <point x="140" y="655"/>
      <point x="216" y="655" type="curve" smooth="yes"/>
      <point x="287" y="655"/>
      <point x="335" y="626"/>
      <point x="335" y="545" type="curve" smooth="yes"/>
      <point x="335" y="127" type="line" smooth="yes"/>
      <point x="335" y="72"/>
      <point x="293" y="55"/>
      <point x="256" y="55" type="curve" smooth="yes"/>
      <point x="206" y="55"/>
      <point x="171" y="87"/>
      <point x="171" y="126" type="curve" smooth="yes"/>
      <point x="171" y="163"/>
      <point x="203" y="187"/>
      <point x="270" y="187" type="curve" smooth="yes"/>
      <point x="524" y="187" type="line"/>
      <point x="524" y="252" type="line"/>
      <point x="258" y="252" type="line" smooth="yes"/>
      <point x="154" y="252"/>
      <point x="99" y="194"/>
      <point x="99" y="124" type="curve" smooth="yes"/>
      <point x="99" y="46"/>
      <point x="168" y="-10"/>
    </contour>
  </outline>
</glyph>
<glyph name="aan-wcho" format="2">
  <advance width="780"/>
  <unicode hex="1E2E8"/>
  <anchor x="496" y="660" name="top"/>
  <outline>
    <contour>
      <point x="161" y="-10" type="curve" smooth="yes"/>
      <point x="238" y="-10"/>
      <point x="296" y="46"/>
      <point x="336" y="147" type="curve" smooth="yes"/>
      <point x="560" y="710" type="line"/>
      <point x="488" y="710" type="line"/>
      <point x="273" y="169" type="line" smooth="yes"/>
      <point x="245" y="98"/>
      <point x="213" y="55"/>
      <point x="167" y="55" type="curve" smooth="yes"/>
      <point x="135" y="55"/>
      <point x="112" y="76"/>
      <point x="112" y="117" type="curve" smooth="yes"/>
      <point x="112" y="195"/>
      <point x="204" y="243"/>
      <point x="339" y="254" type="curve" smooth="yes"/>
      <point x="735" y="287" type="line"/>
      <point x="760" y="374" type="line"/>
      <point x="138" y="720" type="line"/>
      <point x="106" y="664" type="line"/>
      <point x="674" y="348" type="line"/>
      <point x="345" y="320" type="line" smooth="yes"/>
      <point x="146" y="303"/>
      <point x="40" y="213"/>
      <point x="40" y="114" type="curve" smooth="yes"/>
      <point x="40" y="31"/>
      <point x="104" y="-10"/>
    </contour>
  </outline>
</glyph>
<glyph name="nya-wcho" format="2">
  <advance width="643"/>
  <unicode hex="1E2E9"/>
  <anchor x="375" y="660" name="top"/>
  <outline>
    <contour>
      <point x="421" y="-10" type="curve" smooth="yes"/>
      <point x="537" y="-10"/>
      <point x="608" y="59"/>
      <point x="608" y="132" type="curve" smooth="yes"/>
      <point x="608" y="193"/>
      <point x="558" y="257"/>
      <point x="452" y="257" type="curve" smooth="yes"/>
      <point x="444" y="257" type="line"/>
      <point x="444" y="192" type="line"/>
      <point x="449" y="192" type="line" smooth="yes"/>
      <point x="522" y="192"/>
      <point x="536" y="159"/>
      <point x="536" y="134" type="curve" smooth="yes"/>
      <point x="536" y="94"/>
      <point x="498" y="55"/>
      <point x="421" y="55" type="curve" smooth="yes"/>
      <point x="351" y="55"/>
      <point x="309" y="89"/>
      <point x="309" y="165" type="curve" smooth="yes"/>
      <point x="309" y="566" type="line" smooth="yes"/>
      <point x="309" y="626"/>
      <point x="338" y="655"/>
      <point x="387" y="655" type="curve" smooth="yes"/>
      <point x="430" y="655"/>
      <point x="463" y="632"/>
      <point x="463" y="592" type="curve" smooth="yes"/>
      <point x="463" y="531"/>
      <point x="388" y="496"/>
      <point x="286" y="496" type="curve" smooth="yes"/>
      <point x="193" y="496"/>
      <point x="110" y="524"/>
      <point x="110" y="591" type="curve" smooth="yes"/>
      <point x="110" y="626"/>
      <point x="131" y="651"/>
      <point x="151" y="670" type="curve"/>
      <point x="110" y="720" type="line"/>
      <point x="64" y="688"/>
      <point x="38" y="639"/>
      <point x="38" y="588" type="curve" smooth="yes"/>
      <point x="38" y="483"/>
      <point x="150" y="431"/>
      <point x="281" y="431" type="curve" smooth="yes"/>
      <point x="424" y="431"/>
      <point x="535" y="493"/>
      <point x="535" y="594" type="curve" smooth="yes"/>
      <point x="535" y="670"/>
      <point x="467" y="720"/>
      <point x="386" y="720" type="curve" smooth="yes"/>
      <point x="300" y="720"/>
      <point x="239" y="661"/>
      <point x="239" y="566" type="curve" smooth="yes"/>
      <point x="239" y="165" type="line" smooth="yes"/>
      <point x="239" y="43"/>
      <point x="319" y="-10"/>
    </contour>
  </outline>
</glyph>
<glyph name="yih-wcho" format="2">
  <advance width="573"/>
  <unicode hex="1E2EB"/>
  <anchor x="494" y="660" name="top"/>
  <outline>
    <contour>
      <point x="150" y="-10" type="curve" smooth="yes"/>
      <point x="218" y="-10"/>
      <point x="271" y="32"/>
      <point x="304" y="114" type="curve" smooth="yes"/>
      <point x="543" y="710" type="line"/>
      <point x="471" y="710" type="line"/>
      <point x="245" y="144" type="line" smooth="yes"/>
      <point x="226" y="97"/>
      <point x="191" y="55"/>
      <point x="153" y="55" type="curve" smooth="yes"/>
      <point x="124" y="55"/>
      <point x="102" y="79"/>
      <point x="102" y="114" type="curve" smooth="yes"/>
      <point x="102" y="172"/>
      <point x="171" y="212"/>
      <point x="251" y="212" type="curve" smooth="yes"/>
      <point x="361" y="212"/>
      <point x="448" y="149"/>
      <point x="448" y="19" type="curve" smooth="yes"/>
      <point x="448" y="0" type="line"/>
      <point x="520" y="0" type="line"/>
      <point x="520" y="9" type="line" smooth="yes"/>
      <point x="520" y="198"/>
      <point x="400" y="277"/>
      <point x="261" y="277" type="curve" smooth="yes"/>
      <point x="125" y="277"/>
      <point x="30" y="200"/>
      <point x="30" y="106" type="curve" smooth="yes"/>
      <point x="30" y="39"/>
      <point x="77" y="-10"/>
    </contour>
  </outline>
</glyph>
<glyph name="tup-wcho" format="2">
  <unicode hex="1E2EC"/>
  <anchor x="-305" y="658" name="_top"/>
  <outline>
    <contour>
      <point x="-305" y="772" type="curve" smooth="yes"/>
      <point x="-277" y="772"/>
      <point x="-260" y="794"/>
      <point x="-260" y="834" type="curve" smooth="yes"/>
      <point x="-260" y="874"/>
      <point x="-277" y="896"/>
      <point x="-305" y="896" type="curve" smooth="yes"/>
      <point x="-333" y="896"/>
      <point x="-352" y="874"/>
      <point x="-352" y="834" type="curve" smooth="yes"/>
      <point x="-352" y="794"/>
      <point x="-333" y="772"/>
    </contour>
  </outline>
</glyph>
<glyph name="tupni-wcho" format="2">
  <unicode hex="1E2ED"/>
  <anchor x="-305" y="658" name="_top"/>
  <outline>
    <contour>
      <point x="-395" y="772" type="curve" smooth="yes"/>
      <point x="-367" y="772"/>
      <point x="-350" y="794"/>
      <point x="-350" y="834" type="curve" smooth="yes"/>
      <point x="-350" y="874"/>
      <point x="-367" y="896"/>
      <point x="-395" y="896" type="curve" smooth="yes"/>
      <point x="-423" y="896"/>
      <point x="-442" y="874"/>
      <point x="-442" y="834" type="curve" smooth="yes"/>
      <point x="-442" y="794"/>
      <point x="-423" y="772"/>
    </contour>
    <contour>
      <point x="-215" y="772" type="curve" smooth="yes"/>
      <point x="-187" y="772"/>
      <point x="-170" y="794"/>
      <point x="-170" y="834" type="curve" smooth="yes"/>
      <point x="-170" y="874"/>
      <point x="-187" y="896"/>
      <point x="-215" y="896" type="curve" smooth="yes"/>
      <point x="-243" y="896"/>
      <point x="-262" y="874"/>
      <point x="-262" y="834" type="curve" smooth="yes"/>
      <point x="-262" y="794"/>
      <point x="-243" y="772"/>
    </contour>
  </outline>
</glyph>
<glyph name="koi-wcho" format="2">
  <unicode hex="1E2EE"/>
  <anchor x="-322" y="647" name="_top"/>
  <outline>
    <contour>
      <point x="-342" y="751" type="curve"/>
      <point x="-326" y="751" type="line"/>
      <point x="-324" y="857"/>
      <point x="-292" y="928"/>
      <point x="-235" y="989" type="curve"/>
      <point x="-235" y="1038"/>
      <point x="-262" y="1066"/>
      <point x="-291" y="1078" type="curve"/>
      <point x="-319" y="1048"/>
      <point x="-364" y="985"/>
      <point x="-364" y="889" type="curve" smooth="yes"/>
      <point x="-364" y="856"/>
      <point x="-359" y="809"/>
    </contour>
  </outline>
</glyph>
<glyph name="koini-wcho" format="2">
  <unicode hex="1E2EF"/>
  <anchor x="-312" y="647" name="_top"/>
  <outline>
    <contour>
      <point x="-367" y="750" type="curve"/>
      <point x="-354" y="756" type="line"/>
      <point x="-370" y="804"/>
      <point x="-376" y="841"/>
      <point x="-376" y="886" type="curve" smooth="yes"/>
      <point x="-376" y="926"/>
      <point x="-365" y="969"/>
      <point x="-348" y="1008" type="curve"/>
      <point x="-357" y="1047"/>
      <point x="-385" y="1071"/>
      <point x="-431" y="1074" type="curve"/>
      <point x="-447" y="1038"/>
      <point x="-453" y="1008"/>
      <point x="-453" y="976" type="curve" smooth="yes"/>
      <point x="-453" y="897"/>
      <point x="-418" y="820"/>
    </contour>
    <contour>
      <point x="-279" y="748" type="curve"/>
      <point x="-263" y="747" type="line"/>
      <point x="-242" y="849"/>
      <point x="-198" y="915"/>
      <point x="-132" y="965" type="curve"/>
      <point x="-124" y="1000"/>
      <point x="-137" y="1039"/>
      <point x="-172" y="1062" type="curve"/>
      <point x="-204" y="1040"/>
      <point x="-224" y="1016"/>
      <point x="-240" y="988" type="curve" smooth="yes"/>
      <point x="-280" y="919"/>
      <point x="-289" y="835"/>
    </contour>
  </outline>
</glyph>
<glyph name="zero-wcho" format="2">
  <advance width="673"/>
  <unicode hex="1E2F0"/>
  <outline>
    <contour>
      <point x="335" y="-10" type="curve" smooth="yes"/>
      <point x="510" y="-10"/>
      <point x="623" y="126"/>
      <point x="623" y="352" type="curve" smooth="yes"/>
      <point x="623" y="594"/>
      <point x="518" y="720"/>
      <point x="335" y="720" type="curve" smooth="yes"/>
      <point x="154" y="720"/>
      <point x="50" y="594"/>
      <point x="50" y="352" type="curve" smooth="yes"/>
      <point x="50" y="126"/>
      <point x="162" y="-10"/>
    </contour>
    <contour>
      <point x="335" y="55" type="curve" smooth="yes"/>
      <point x="203" y="55"/>
      <point x="122" y="159"/>
      <point x="122" y="352" type="curve" smooth="yes"/>
      <point x="122" y="561"/>
      <point x="196" y="655"/>
      <point x="335" y="655" type="curve" smooth="yes"/>
      <point x="476" y="655"/>
      <point x="551" y="561"/>
      <point x="551" y="352" type="curve" smooth="yes"/>
      <point x="551" y="159"/>
      <point x="469" y="55"/>
    </contour>
  </outline>
</glyph>
<glyph name="one-wcho" format="2">
  <advance width="430"/>
  <unicode hex="1E2F1"/>
  <outline>
    <contour>
      <point x="68" y="529" type="curve"/>
      <point x="125" y="555" type="line"/>
      <point x="114" y="570"/>
      <point x="106" y="584"/>
      <point x="106" y="602" type="curve" smooth="yes"/>
      <point x="106" y="643"/>
      <point x="146" y="655"/>
      <point x="185" y="655" type="curve" smooth="yes"/>
      <point x="243" y="655"/>
      <point x="270" y="628"/>
      <point x="270" y="585" type="curve" smooth="yes"/>
      <point x="270" y="0" type="line"/>
      <point x="342" y="0" type="line"/>
      <point x="342" y="585" type="line" smooth="yes"/>
      <point x="342" y="666"/>
      <point x="289" y="720"/>
      <point x="189" y="720" type="curve" smooth="yes"/>
      <point x="107" y="720"/>
      <point x="40" y="683"/>
      <point x="40" y="607" type="curve" smooth="yes"/>
      <point x="40" y="581"/>
      <point x="48" y="555"/>
    </contour>
  </outline>
</glyph>
<glyph name="two-wcho" format="2">
  <advance width="640"/>
  <unicode hex="1E2F2"/>
  <outline>
    <contour>
      <point x="60" y="101" type="line"/>
      <point x="101" y="29"/>
      <point x="188" y="-10"/>
      <point x="277" y="-10" type="curve" smooth="yes"/>
      <point x="439" y="-10"/>
      <point x="570" y="129"/>
      <point x="570" y="333" type="curve" smooth="yes"/>
      <point x="570" y="534"/>
      <point x="443" y="720"/>
      <point x="269" y="720" type="curve" smooth="yes"/>
      <point x="158" y="720"/>
      <point x="63" y="644"/>
      <point x="63" y="520" type="curve" smooth="yes"/>
      <point x="63" y="402"/>
      <point x="149" y="314"/>
      <point x="271" y="314" type="curve" smooth="yes"/>
      <point x="441" y="314"/>
      <point x="569" y="483"/>
      <point x="569" y="713" type="curve"/>
      <point x="497" y="713" type="line"/>
      <point x="497" y="518"/>
      <point x="399" y="379"/>
      <point x="271" y="379" type="curve" smooth="yes"/>
      <point x="189" y="379"/>
      <point x="135" y="436"/>
      <point x="135" y="521" type="curve" smooth="yes"/>
      <point x="135" y="620"/>
      <point x="209" y="655"/>
      <point x="267" y="655" type="curve" smooth="yes"/>
      <point x="389" y="655"/>
      <point x="498" y="498"/>
      <point x="498" y="328" type="curve" smooth="yes"/>
      <point x="498" y="168"/>
      <point x="401" y="55"/>
      <point x="277" y="55" type="curve" smooth="yes"/>
      <point x="206" y="55"/>
      <point x="144" y="88"/>
      <point x="117" y="136" type="curve"/>
    </contour>
  </outline>
</glyph>
<glyph name="three-wcho" format="2">
  <advance width="655"/>
  <unicode hex="1E2F3"/>
  <outline>
    <contour>
      <point x="595" y="57" type="line"/>
      <point x="588" y="53"/>
      <point x="579" y="50"/>
      <point x="570" y="50" type="curve" smooth="yes"/>
      <point x="531" y="50"/>
      <point x="494" y="102"/>
      <point x="485" y="250" type="curve"/>
      <point x="492" y="286"/>
      <point x="496" y="325"/>
      <point x="496" y="370" type="curve" smooth="yes"/>
      <point x="496" y="587"/>
      <point x="403" y="720"/>
      <point x="263" y="720" type="curve" smooth="yes"/>
      <point x="162" y="720"/>
      <point x="88" y="650"/>
      <point x="50" y="512" type="curve"/>
      <point x="116" y="491" type="line"/>
      <point x="143" y="602"/>
      <point x="195" y="655"/>
      <point x="259" y="655" type="curve" smooth="yes"/>
      <point x="348" y="655"/>
      <point x="424" y="551"/>
      <point x="424" y="364" type="curve" smooth="yes"/>
      <point x="424" y="180"/>
      <point x="352" y="55"/>
      <point x="248" y="55" type="curve" smooth="yes"/>
      <point x="185" y="55"/>
      <point x="122" y="101"/>
      <point x="122" y="229" type="curve"/>
      <point x="50" y="229" type="line"/>
      <point x="50" y="53"/>
      <point x="151" y="-10"/>
      <point x="249" y="-10" type="curve" smooth="yes"/>
      <point x="323" y="-10"/>
      <point x="397" y="34"/>
      <point x="453" y="145" type="curve"/>
      <point x="427" y="159" type="line"/>
      <point x="449" y="29"/>
      <point x="511" y="-10"/>
      <point x="571" y="-10" type="curve" smooth="yes"/>
      <point x="593" y="-10"/>
      <point x="610" y="-5"/>
      <point x="625" y="5" type="curve"/>
    </contour>
  </outline>
</glyph>
<glyph name="four-wcho" format="2">
  <advance width="623"/>
  <unicode hex="1E2F4"/>
  <outline>
    <contour>
      <point x="613" y="652" type="line"/>
      <point x="571" y="720" type="line"/>
      <point x="282" y="576" type="line"/>
      <point x="312" y="518" type="line"/>
      <point x="553" y="638" type="line"/>
      <point x="535" y="642" type="line"/>
      <point x="305" y="140" type="line" smooth="yes"/>
      <point x="282" y="89"/>
      <point x="258" y="49"/>
      <point x="204" y="49" type="curve" smooth="yes"/>
      <point x="163" y="49"/>
      <point x="122" y="79"/>
      <point x="122" y="131" type="curve" smooth="yes"/>
      <point x="122" y="183"/>
      <point x="161" y="207"/>
      <point x="224" y="207" type="curve"/>
      <point x="224" y="272" type="line"/>
      <point x="119" y="272"/>
      <point x="50" y="219"/>
      <point x="50" y="127" type="curve" smooth="yes"/>
      <point x="50" y="45"/>
      <point x="108" y="-16"/>
      <point x="207" y="-16" type="curve" smooth="yes"/>
      <point x="291" y="-16"/>
      <point x="332" y="40"/>
      <point x="370" y="122" type="curve" smooth="yes"/>
    </contour>
  </outline>
</glyph>
<glyph name="five-wcho" format="2">
  <advance width="587"/>
  <unicode hex="1E2F5"/>
  <outline>
    <contour>
      <point x="83" y="61" type="curve"/>
      <point x="149" y="88" type="line"/>
      <point x="132" y="121"/>
      <point x="122" y="160"/>
      <point x="122" y="186" type="curve" smooth="yes"/>
      <point x="122" y="262"/>
      <point x="191" y="310"/>
      <point x="295" y="310" type="curve" smooth="yes"/>
      <point x="407" y="310"/>
      <point x="465" y="257"/>
      <point x="465" y="185" type="curve" smooth="yes"/>
      <point x="465" y="129"/>
      <point x="430" y="65"/>
      <point x="328" y="65" type="curve"/>
      <point x="328" y="710" type="line"/>
      <point x="256" y="710" type="line"/>
      <point x="256" y="0" type="line"/>
      <point x="317" y="0" type="line"/>
      <point x="465" y="0"/>
      <point x="537" y="104"/>
      <point x="537" y="191" type="curve" smooth="yes"/>
      <point x="537" y="292"/>
      <point x="444" y="375"/>
      <point x="294" y="375" type="curve" smooth="yes"/>
      <point x="151" y="375"/>
      <point x="50" y="299"/>
      <point x="50" y="181" type="curve" smooth="yes"/>
      <point x="50" y="143"/>
      <point x="61" y="104"/>
    </contour>
  </outline>
</glyph>
<glyph name="six-wcho" format="2">
  <advance width="515"/>
  <unicode hex="1E2F6"/>
  <outline>
    <contour>
      <point x="60" y="650" type="curve"/>
      <point x="95" y="596" type="line"/>
      <point x="122" y="620"/>
      <point x="172" y="655"/>
      <point x="236" y="655" type="curve" smooth="yes"/>
      <point x="301" y="655"/>
      <point x="393" y="619"/>
      <point x="393" y="497" type="curve" smooth="yes"/>
      <point x="393" y="383"/>
      <point x="318" y="325"/>
      <point x="224" y="325" type="curve" smooth="yes"/>
      <point x="197" y="325"/>
      <point x="172" y="330"/>
      <point x="149" y="337" type="curve"/>
      <point x="149" y="0" type="line"/>
      <point x="221" y="0" type="line"/>
      <point x="221" y="264" type="line"/>
      <point x="362" y="264"/>
      <point x="465" y="357"/>
      <point x="465" y="497" type="curve" smooth="yes"/>
      <point x="465" y="640"/>
      <point x="362" y="720"/>
      <point x="243" y="720" type="curve" smooth="yes"/>
      <point x="160" y="720"/>
      <point x="98" y="679"/>
    </contour>
  </outline>
</glyph>
<glyph name="seven-wcho" format="2">
  <advance width="552"/>
  <unicode hex="1E2F7"/>
  <outline>
    <contour>
      <point x="470" y="710" type="line"/>
      <point x="219" y="163" type="line"/>
      <point x="216" y="163" type="line"/>
      <point x="216" y="710" type="line"/>
      <point x="50" y="710" type="line"/>
      <point x="50" y="645" type="line"/>
      <point x="144" y="645" type="line"/>
      <point x="144" y="0" type="line"/>
      <point x="216" y="0" type="line"/>
      <point x="542" y="710" type="line"/>
    </contour>
  </outline>
</glyph>
<glyph name="eight-wcho" format="2">
  <advance width="579"/>
  <unicode hex="1E2F8"/>
  <outline>
    <contour>
      <point x="529" y="429" type="line"/>
      <point x="416" y="429" type="line"/>
      <point x="416" y="710" type="line"/>
      <point x="344" y="710" type="line"/>
      <point x="344" y="429" type="line"/>
      <point x="30" y="429" type="line"/>
      <point x="30" y="364" type="line"/>
      <point x="328" y="0" type="line"/>
      <point x="416" y="0" type="line"/>
      <point x="416" y="364" type="line"/>
      <point x="529" y="364" type="line"/>
    </contour>
    <contour>
      <point x="344" y="364" type="line"/>
      <point x="344" y="83" type="line"/>
      <point x="115" y="364" type="line"/>
    </contour>
  </outline>
</glyph>
<glyph name="nine-wcho" format="2">
  <advance width="588"/>
  <unicode hex="1E2F9"/>
  <outline>
    <contour>
      <point x="30" y="365" type="curve"/>
      <point x="55" y="314" type="line"/>
      <point x="140" y="342"/>
      <point x="238" y="350"/>
      <point x="277" y="350" type="curve" smooth="yes"/>
      <point x="384" y="350"/>
      <point x="442" y="281"/>
      <point x="442" y="189" type="curve" smooth="yes"/>
      <point x="442" y="122"/>
      <point x="408" y="53"/>
      <point x="331" y="53" type="curve" smooth="yes"/>
      <point x="272" y="53"/>
      <point x="240" y="101"/>
      <point x="240" y="170" type="curve" smooth="yes"/>
      <point x="240" y="318"/>
      <point x="382" y="448"/>
      <point x="553" y="448" type="curve"/>
      <point x="553" y="513" type="line"/>
      <point x="339" y="513"/>
      <point x="168" y="348"/>
      <point x="168" y="170" type="curve" smooth="yes"/>
      <point x="168" y="66"/>
      <point x="228" y="-10"/>
      <point x="331" y="-10" type="curve" smooth="yes"/>
      <point x="451" y="-10"/>
      <point x="514" y="92"/>
      <point x="514" y="198" type="curve" smooth="yes"/>
      <point x="514" y="334"/>
      <point x="416" y="406"/>
      <point x="296" y="408" type="curve" smooth="yes"/>
      <point x="238" y="409"/>
      <point x="163" y="394"/>
      <point x="115" y="383" type="curve"/>
      <point x="110" y="373" type="line"/>
      <point x="242" y="468"/>
      <point x="315" y="525"/>
      <point x="315" y="610" type="curve" smooth="yes"/>
      <point x="315" y="688"/>
      <point x="253" y="720"/>
      <point x="136" y="720" type="curve"/>
      <point x="136" y="655" type="line"/>
      <point x="202" y="655"/>
      <point x="243" y="647"/>
      <point x="243" y="601" type="curve" smooth="yes"/>
      <point x="243" y="548"/>
      <point x="187" y="488"/>
    </contour>
  </outline>
</glyph>
<glyph name="ngunSign-wcho" format="2">
  <advance width="611"/>
  <unicode hex="1E2FF"/>
  <outline>
    <contour>
      <point x="45" y="59" type="curve"/>
      <point x="2" y="10" type="line"/>
      <point x="44" y="-30"/>
      <point x="81" y="-40"/>
      <point x="113" y="-40" type="curve" smooth="yes"/>
      <point x="186" y="-40"/>
      <point x="246" y="8"/>
      <point x="264" y="95" type="curve" smooth="yes"/>
      <point x="328" y="399" type="line" smooth="yes"/>
      <point x="339" y="452"/>
      <point x="372" y="493"/>
      <point x="431" y="493" type="curve" smooth="yes"/>
      <point x="471" y="493"/>
      <point x="496" y="474"/>
      <point x="496" y="440" type="curve" smooth="yes"/>
      <point x="496" y="407"/>
      <point x="474" y="375"/>
      <point x="383" y="375" type="curve" smooth="yes"/>
      <point x="267" y="375"/>
      <point x="200" y="433"/>
      <point x="200" y="530" type="curve" smooth="yes"/>
      <point x="200" y="630"/>
      <point x="272" y="685"/>
      <point x="394" y="685" type="curve" smooth="yes"/>
      <point x="470" y="685"/>
      <point x="508" y="662"/>
      <point x="540" y="638" type="curve"/>
      <point x="578" y="691" type="line"/>
      <point x="540" y="717"/>
      <point x="487" y="750"/>
      <point x="393" y="750" type="curve" smooth="yes"/>
      <point x="236" y="750"/>
      <point x="128" y="660"/>
      <point x="128" y="523" type="curve" smooth="yes"/>
      <point x="128" y="386"/>
      <point x="233" y="310"/>
      <point x="379" y="310" type="curve" smooth="yes"/>
      <point x="512" y="310"/>
      <point x="568" y="377"/>
      <point x="568" y="444" type="curve" smooth="yes"/>
      <point x="568" y="514"/>
      <point x="509" y="558"/>
      <point x="433" y="558" type="curve" smooth="yes"/>
      <point x="332" y="558"/>
      <point x="281" y="479"/>
      <point x="265" y="405" type="curve" smooth="yes"/>
      <point x="202" y="120" type="line" smooth="yes"/>
      <point x="185" y="44"/>
      <point x="150" y="25"/>
      <point x="119" y="25" type="curve" smooth="yes"/>
      <point x="91" y="25"/>
      <point x="66" y="41"/>
    </contour>
    <contour>
      <point x="55" y="181" type="line"/>
      <point x="514" y="181" type="line"/>
      <point x="514" y="246" type="line"/>
      <point x="55" y="246" type="line"/>
    </contour>
  </outline>
</glyph>
<glyph name="backslash.wcho" format="2">
  <advance width="362"/>
  <outline>
    <contour>
      <point x="86" y="714" type="line"/>
      <point x="10" y="714" type="line"/>
      <point x="276" y="0" type="line"/>
      <point x="353" y="0" type="line"/>
    </contour>
  </outline>
</glyph>
<glyph name="braceleft.wcho" format="2">
  <advance width="370"/>
  <outline>
    <contour>
      <point x="333" y="-72" type="curve"/>
      <point x="333" y="0" type="line"/>
      <point x="262" y="0"/>
      <point x="222" y="28"/>
      <point x="222" y="93" type="curve" smooth="yes"/>
      <point x="222" y="240" type="line" smooth="yes"/>
      <point x="222" y="308"/>
      <point x="197" y="349"/>
      <point x="128" y="362" type="curve"/>
      <point x="128" y="368" type="line"/>
      <point x="196" y="381"/>
      <point x="222" y="422"/>
      <point x="222" y="490" type="curve" smooth="yes"/>
      <point x="222" y="634" type="line" smooth="yes"/>
      <point x="222" y="699"/>
      <point x="264" y="726"/>
      <point x="333" y="728" type="curve"/>
      <point x="333" y="800" type="line"/>
      <point x="216" y="800"/>
      <point x="150" y="748"/>
      <point x="150" y="642" type="curve" smooth="yes"/>
      <point x="150" y="494" type="line" smooth="yes"/>
      <point x="150" y="427"/>
      <point x="107" y="401"/>
      <point x="28" y="401" type="curve"/>
      <point x="28" y="328" type="line"/>
      <point x="107" y="328"/>
      <point x="150" y="302"/>
      <point x="150" y="234" type="curve" smooth="yes"/>
      <point x="150" y="87" type="line" smooth="yes"/>
      <point x="150" y="-20"/>
      <point x="210" y="-72"/>
    </contour>
  </outline>
</glyph>
<glyph name="braceright.wcho" format="2">
  <advance width="370"/>
  <outline>
    <contour>
      <point x="37" y="-72" type="line"/>
      <point x="154" y="-72"/>
      <point x="220" y="-20"/>
      <point x="220" y="86" type="curve" smooth="yes"/>
      <point x="220" y="235" type="line" smooth="yes"/>
      <point x="220" y="302"/>
      <point x="263" y="328"/>
      <point x="342" y="328" type="curve"/>
      <point x="342" y="401" type="line"/>
      <point x="263" y="401"/>
      <point x="220" y="427"/>
      <point x="220" y="495" type="curve" smooth="yes"/>
      <point x="220" y="641" type="line" smooth="yes"/>
      <point x="220" y="748"/>
      <point x="160" y="800"/>
      <point x="37" y="800" type="curve"/>
      <point x="37" y="728" type="line"/>
      <point x="108" y="728"/>
      <point x="148" y="700"/>
      <point x="148" y="635" type="curve" smooth="yes"/>
      <point x="148" y="489" type="line" smooth="yes"/>
      <point x="148" y="421"/>
      <point x="173" y="380"/>
      <point x="242" y="367" type="curve"/>
      <point x="242" y="361" type="line"/>
      <point x="174" y="348"/>
      <point x="148" y="307"/>
      <point x="148" y="239" type="curve" smooth="yes"/>
      <point x="148" y="94" type="line" smooth="yes"/>
      <point x="148" y="29"/>
      <point x="106" y="2"/>
      <point x="37" y="0" type="curve"/>
    </contour>
  </outline>
</glyph>
<glyph name="bracketleft.wcho" format="2">
  <advance width="315"/>
  <outline>
    <contour>
      <point x="290" y="-72" type="line"/>
      <point x="290" y="0" type="line"/>
      <point x="152" y="0" type="line"/>
      <point x="152" y="728" type="line"/>
      <point x="290" y="728" type="line"/>
      <point x="290" y="800" type="line"/>
      <point x="80" y="800" type="line"/>
      <point x="80" y="-72" type="line"/>
    </contour>
  </outline>
</glyph>
<glyph name="bracketright.wcho" format="2">
  <advance width="315"/>
  <outline>
    <contour>
      <point x="25" y="0" type="line"/>
      <point x="25" y="-72" type="line"/>
      <point x="235" y="-72" type="line"/>
      <point x="235" y="800" type="line"/>
      <point x="25" y="800" type="line"/>
      <point x="25" y="728" type="line"/>
      <point x="163" y="728" type="line"/>
      <point x="163" y="0" type="line"/>
    </contour>
  </outline>
</glyph>
<glyph name="hyphen.wcho" format="2">
  <advance width="322"/>
  <outline>
    <contour>
      <point x="40" y="396" type="line"/>
      <point x="40" y="318" type="line"/>
      <point x="282" y="318" type="line"/>
      <point x="282" y="396" type="line"/>
    </contour>
  </outline>
</glyph>
<glyph name="parenleft.wcho" format="2">
  <advance width="290"/>
  <outline>
    <contour>
      <point x="40" y="360" type="curve" smooth="yes"/>
      <point x="40" y="199"/>
      <point x="86" y="45"/>
      <point x="187" y="-72" type="curve"/>
      <point x="259" y="-72" type="line"/>
      <point x="167" y="53"/>
      <point x="119" y="206"/>
      <point x="119" y="361" type="curve" smooth="yes"/>
      <point x="119" y="519"/>
      <point x="167" y="675"/>
      <point x="260" y="800" type="curve"/>
      <point x="187" y="800" type="line"/>
      <point x="86" y="679"/>
      <point x="40" y="523"/>
    </contour>
  </outline>
</glyph>
<glyph name="parenright.wcho" format="2">
  <advance width="290"/>
  <outline>
    <contour>
      <point x="250" y="360" type="curve" smooth="yes"/>
      <point x="250" y="523"/>
      <point x="204" y="679"/>
      <point x="103" y="800" type="curve"/>
      <point x="30" y="800" type="line"/>
      <point x="123" y="675"/>
      <point x="171" y="519"/>
      <point x="171" y="361" type="curve" smooth="yes"/>
      <point x="171" y="206"/>
      <point x="123" y="53"/>
      <point x="31" y="-72" type="curve"/>
      <point x="103" y="-72" type="line"/>
      <point x="204" y="45"/>
      <point x="250" y="199"/>
    </contour>
  </outline>
</glyph>
<glyph name="slash.wcho" format="2">
  <advance width="372"/>
  <outline>
    <contour>
      <point x="96" y="0" type="line"/>
      <point x="362" y="714" type="line"/>
      <point x="286" y="714" type="line"/>
      <point x="20" y="0" type="line"/>
    </contour>
  </outline>
</glyph>
